<svg width="26" height="26" viewBox="0 0 26 26" fill="none" xmlns="http://www.w3.org/2000/svg">
<path d="M17.2332 2L16.8487 8.09208L22.396 5.7912L25 13.8559L19.1961 15.4327L23.0657 20.029L16.2308 25L13.0099 19.9159L9.76593 24.9978L2.93097 20.0268L6.82265 15.4327L1 13.8571L3.604 5.79341L9.17992 8.09541L8.79548 2H17.2332ZM9.99725 3.13547L10.4202 9.83521L4.30127 7.30812L2.43969 13.0709L8.84065 14.8029L4.58326 19.8272L9.4608 23.3755L13.0143 17.8113L16.5392 23.3755L21.4178 19.8272L17.188 14.8029L23.5603 13.0709L21.6998 7.30812L15.6084 9.83521L16.0314 3.13547H9.99725Z" fill="url(#paint0_linear_1127_19)"/>
<defs>
<linearGradient id="paint0_linear_1127_19" x1="1" y1="13.5" x2="25" y2="13.5" gradientUnits="userSpaceOnUse">
<stop stop-color="#386BB7"/>
<stop offset="1" stop-color="#E24C4A"/>
</linearGradient>
</defs>
</svg>
