<svg width="119" height="41" viewBox="0 0 119 41" fill="none" xmlns="http://www.w3.org/2000/svg">
<g clip-path="url(#clip0_231_754)">
<path d="M49.6528 16.5464C50.0197 16.3997 50.46 16.1795 50.8269 16.0328C51.2672 15.8126 51.6341 15.5925 52.0744 15.3723C52.8608 14.9143 53.5774 14.346 54.2024 13.6846H56.3305V27.5535H53.3219V17.5004C52.9069 17.788 52.4645 18.0338 52.001 18.2342C51.525 18.4613 51.0347 18.6574 50.5334 18.8212L49.6528 16.5464Z" fill="#111111"/>
<path d="M70.3461 20.5095C70.3461 22.8577 69.9058 24.6189 69.0253 25.8663C68.5981 26.4359 68.0441 26.8982 67.4073 27.2167C66.7704 27.5351 66.0682 27.7008 65.3562 27.7008C64.6442 27.7008 63.942 27.5351 63.3052 27.2167C62.6683 26.8982 62.1144 26.4359 61.6872 25.8663C60.8066 24.6189 60.3663 22.8577 60.3663 20.5095C60.3619 19.471 60.4851 18.436 60.7332 17.4275C60.9402 16.6151 61.2879 15.8452 61.7606 15.1527C62.1701 14.5572 62.7261 14.077 63.3749 13.7585C64.0121 13.434 64.7147 13.2584 65.4296 13.2448C66.1464 13.2152 66.8591 13.3679 67.5008 13.6888C68.1425 14.0096 68.6923 14.4881 69.0986 15.0794C69.9792 16.3268 70.3461 18.2347 70.3461 20.5095ZM67.2641 20.5095C67.2778 19.8727 67.2532 19.2356 67.1907 18.6016C67.1427 18.1038 67.0444 17.612 66.8972 17.134C66.7808 16.7736 66.5795 16.4464 66.3102 16.1801C66.0501 15.9414 65.7092 15.8103 65.3562 15.8132C65.0058 15.8237 64.6694 15.9531 64.4023 16.1801C64.1329 16.4464 63.9316 16.7736 63.8152 17.134C63.6332 17.6025 63.5339 18.0991 63.5217 18.6016C63.4577 19.2355 63.4332 19.8727 63.4483 20.5095C63.4332 21.1464 63.4577 21.7836 63.5217 22.4174C63.5622 22.9164 63.6607 23.4089 63.8152 23.885C63.9316 24.2455 64.1329 24.5727 64.4023 24.839C64.6623 25.0776 65.0033 25.2088 65.3562 25.2059C65.7066 25.1953 66.043 25.0659 66.3102 24.839C66.5795 24.5727 66.7808 24.2455 66.8972 23.885C67.0444 23.407 67.1427 22.9153 67.1907 22.4174C67.2563 21.7837 67.2808 21.1464 67.2641 20.5095Z" fill="#111111"/>
<path d="M81.9405 15.1522C82.0873 15.6658 82.3074 16.3263 82.4542 16.9867C82.6743 17.6471 82.8211 18.3809 83.0412 19.1147L83.7016 21.3162C83.9218 22.05 84.1419 22.7104 84.3621 23.3708C84.5088 22.7104 84.729 21.9766 84.8757 21.1694C85.0225 20.3622 85.2426 19.555 85.3894 18.6745C85.5361 17.7939 85.6829 16.9867 85.8297 16.1061C85.9764 15.2256 86.1232 14.4184 86.27 13.6846H89.4987C89.0584 16.0328 88.4714 18.3809 87.8843 20.7291C87.2973 23.1507 86.6369 25.3521 85.9031 27.5535H83.0412C82.6009 26.3061 82.0873 24.9118 81.647 23.5176C81.2067 22.1234 80.7664 20.7291 80.3261 19.2615C79.8858 20.6557 79.4456 22.05 79.0786 23.5176C78.7117 24.9852 78.1981 26.2327 77.7578 27.5535H74.8959C74.1621 25.4255 73.5017 23.1507 72.9147 20.7291C72.3276 18.3076 71.7406 15.9594 71.3003 13.6846H74.6758L75.1161 16.1061C75.2628 16.9867 75.4096 17.7939 75.6298 18.6745C75.7765 19.555 75.9967 20.3622 76.1434 21.1694C76.2862 21.9163 76.4824 22.652 76.7305 23.3708C76.9506 22.7104 77.1708 22.05 77.4643 21.3162L78.1247 19.1147C78.3448 18.3809 78.565 17.6471 78.7117 16.9867C78.8585 16.3263 79.0786 15.6658 79.2254 15.1522H81.9405Z" fill="#111111"/>
<path d="M90.2325 22.3442C90.1928 20.8043 90.7442 19.3076 91.7735 18.1615C92.2348 17.7112 92.7845 17.3614 93.3878 17.1342C93.9736 16.9069 94.5943 16.7828 95.2224 16.7673C95.8753 16.7322 96.528 16.8386 97.1359 17.0793C97.7439 17.3199 98.2926 17.6891 98.7446 18.1615C99.7006 19.2796 100.175 20.7305 100.065 22.1974V22.7845C100.077 22.983 100.053 23.182 99.9921 23.3715H93.2411C93.2754 23.6646 93.3717 23.947 93.5235 24.2001C93.6753 24.4531 93.8792 24.6709 94.1217 24.8392C94.7348 25.2238 95.4543 25.4037 96.1763 25.3528C96.7171 25.3403 97.2565 25.2913 97.7907 25.2061C98.2441 25.1374 98.6876 25.0142 99.1115 24.8392L99.4784 27.2607C99.2664 27.3564 99.0451 27.4302 98.818 27.4809L97.9374 27.701C97.6021 27.7909 97.2572 27.8402 96.9101 27.8478C96.5466 27.9087 96.1778 27.9333 95.8094 27.9211C94.9571 27.9373 94.1098 27.7878 93.3145 27.4809C92.6496 27.2211 92.0488 26.8206 91.5533 26.3068C91.085 25.8028 90.7341 25.2014 90.526 24.5456C90.3205 23.8302 90.2216 23.0885 90.2325 22.3442ZM97.2036 21.1701C97.1903 20.9197 97.1408 20.6726 97.0569 20.4363C96.9632 20.2015 96.8399 19.9795 96.69 19.7759C96.5481 19.5685 96.3418 19.4137 96.1029 19.3356C95.8295 19.2035 95.5239 19.1526 95.2224 19.1888C94.9234 19.1958 94.6269 19.2452 94.3418 19.3356C94.1333 19.4644 93.9368 19.6117 93.7547 19.7759C93.59 19.9696 93.4653 20.1941 93.3878 20.4363C93.3145 20.7298 93.2411 20.95 93.1677 21.1701H97.2036Z" fill="#111111"/>
<path d="M112.173 22.2705C112.171 23.0433 112.047 23.8109 111.806 24.5453C111.583 25.2108 111.206 25.8142 110.706 26.3064C110.241 26.8045 109.661 27.1822 109.018 27.4072C108.26 27.6533 107.467 27.7772 106.67 27.7741C106.301 27.7862 105.933 27.7616 105.569 27.7007C105.202 27.6273 104.762 27.6273 104.395 27.5539L103.294 27.3338C102.927 27.2604 102.634 27.187 102.34 27.1136V12.4375L105.349 11.9238V17.1339C106.036 16.8036 106.788 16.6282 107.55 16.6202C108.228 16.6218 108.899 16.7461 109.532 16.9871C110.079 17.2692 110.575 17.6413 110.999 18.0878C111.394 18.6188 111.692 19.2149 111.88 19.8489C112.09 20.6385 112.189 21.4536 112.173 22.2705ZM109.165 22.1971C109.165 20.2892 108.431 19.3353 107.037 19.3353C106.738 19.3483 106.443 19.3976 106.156 19.482C105.896 19.5348 105.647 19.6343 105.422 19.7756V25.2057C105.569 25.2057 105.789 25.2791 106.009 25.2791H106.743C107.09 25.2936 107.436 25.2284 107.754 25.0885C108.072 24.9485 108.354 24.7376 108.578 24.4719C108.969 23.778 109.171 22.9937 109.165 22.1971Z" fill="#111111"/>
<path d="M6.31612 13.5311L19.6679 0.179267C19.834 0.0161785 20.0575 -0.0751953 20.2903 -0.0751953C20.523 -0.0751953 20.7465 0.0161785 20.9126 0.179267L40.1483 19.5281C40.3114 19.6942 40.4027 19.9176 40.4027 20.1504C40.4027 20.3832 40.3114 20.6067 40.1483 20.7727L40.0351 20.8859C39.2677 21.6471 38.2306 22.0742 37.1498 22.0742C36.0689 22.0742 35.0318 21.6471 34.2644 20.8859L20.6863 7.30778C20.5202 7.14469 20.2967 7.05332 20.064 7.05332C19.8312 7.05332 19.6077 7.14469 19.4416 7.30778L11.8605 14.8889C11.0931 15.6501 10.056 16.0772 8.97517 16.0772C7.8943 16.0772 6.85721 15.6501 6.08982 14.8889C6.01163 14.6616 5.99138 14.4184 6.03089 14.1813C6.07041 13.9442 6.16844 13.7207 6.31612 13.5311Z" fill="#111111"/>
<path d="M34.3775 26.3176L21.0257 39.6695C20.8596 39.8325 20.6361 39.9239 20.4033 39.9239C20.1706 39.9239 19.9471 39.8325 19.781 39.6695L0.432197 20.3206C0.269108 20.1546 0.177734 19.9311 0.177734 19.6983C0.177734 19.4655 0.269108 19.2421 0.432197 19.076C1.19959 18.3148 2.23668 17.8877 3.31755 17.8877C4.39842 17.8877 5.4355 18.3148 6.2029 19.076L19.6679 32.5409C19.834 32.704 20.0574 32.7954 20.2902 32.7954C20.523 32.7954 20.7464 32.704 20.9125 32.5409L28.4936 24.9598C29.261 24.1986 30.2981 23.7715 31.379 23.7715C32.4599 23.7715 33.4969 24.1986 34.2643 24.9598C34.3643 25.0392 34.447 25.1382 34.5073 25.2508C34.5675 25.3633 34.6041 25.487 34.6147 25.6143C34.6253 25.7415 34.6097 25.8695 34.5689 25.9905C34.5281 26.1115 34.463 26.2228 34.3775 26.3176Z" fill="#111111"/>
<path d="M21.7048 19.5284L18.4234 16.247C17.9861 15.7675 17.7437 15.142 17.7437 14.4931C17.7437 13.8442 17.9861 13.2187 18.4234 12.7393L18.5365 12.6261C18.7607 12.3852 19.0321 12.193 19.3339 12.0616C19.6357 11.9301 19.9613 11.8623 20.2904 11.8623C20.6195 11.8623 20.9451 11.9301 21.2469 12.0616C21.5486 12.193 21.82 12.3852 22.0442 12.6261L28.8333 19.4152C28.9964 19.5813 29.0877 19.8048 29.0877 20.0375C29.0877 20.2703 28.9964 20.4938 28.8333 20.6599L22.2705 27.2226C22.0463 27.4636 21.7749 27.6558 21.4732 27.7872C21.1714 27.9186 20.8458 27.9865 20.5167 27.9865C20.1876 27.9865 19.862 27.9186 19.5602 27.7872C19.2585 27.6558 18.987 27.4636 18.7628 27.2226C18.5219 26.9984 18.3297 26.727 18.1983 26.4253C18.0668 26.1235 17.999 25.7979 17.999 25.4688C17.999 25.1396 18.0668 24.8141 18.1983 24.5123C18.3297 24.2105 18.5219 23.9391 18.7628 23.7149L21.8179 20.6599C21.9366 20.4886 21.9903 20.2806 21.9696 20.0733C21.9489 19.8659 21.855 19.6728 21.7048 19.5284Z" fill="#111111"/>
<path d="M17.6309 19.1883L16.4994 18.0568C16.2752 17.8158 16.0038 17.6236 15.7021 17.4922C15.4003 17.3608 15.0747 17.293 14.7456 17.293C14.4165 17.293 14.0909 17.3608 13.7891 17.4922C13.4874 17.6236 13.2159 17.8158 12.9917 18.0568C12.5544 18.5362 12.312 19.1617 12.312 19.8106C12.312 20.4596 12.5544 21.0851 12.9917 21.5645C13.2159 21.8055 13.4874 21.9977 13.7891 22.1291C14.0909 22.2605 14.4165 22.3283 14.7456 22.3283C15.0747 22.3283 15.4003 22.2605 15.7021 22.1291C16.0038 21.9977 16.2752 21.8055 16.4994 21.5645L17.6309 20.433C17.794 20.2669 17.8854 20.0434 17.8854 19.8106C17.8854 19.5779 17.794 19.3544 17.6309 19.1883Z" fill="#111111"/>
</g>
<defs>
<clipPath id="clip0_231_754">
<rect width="118" height="40" fill="white" transform="translate(0.177734 0.355469)"/>
</clipPath>
</defs>
</svg>
