<svg width="177" height="41" viewBox="0 0 177 41" fill="none" xmlns="http://www.w3.org/2000/svg">
<path d="M50.1777 28.9248V12.9248H53.1946V26.1773H59.5014L59.2859 28.9248H50.1777Z" fill="#111111"/>
<path d="M78.3862 28.9248H75.1538L73.6185 24.7228H67.5578L66.0225 28.9248H62.8979L68.9046 12.9248H72.4063L78.3862 28.9248ZM72.8104 22.2986L71.1942 17.9618C71.0686 17.6206 70.9608 17.2974 70.871 16.9921C70.7992 16.6869 70.7273 16.3906 70.6555 16.1033H70.5208C70.449 16.3906 70.3682 16.6869 70.2784 16.9921C70.2066 17.2974 70.1078 17.6206 69.9821 17.9618L68.312 22.2986H72.8104Z" fill="#111111"/>
<path d="M93.1705 12.9248L87.3254 28.9248H83.7968L77.9517 12.9248H81.211L85.0359 23.6722C85.1436 24.0135 85.2424 24.3546 85.3321 24.6958C85.4219 25.0371 85.5027 25.3512 85.5746 25.6386H85.6823C85.7541 25.3512 85.835 25.0371 85.9247 24.6958C86.0145 24.3546 86.1133 24.0135 86.2211 23.6722L90.0728 12.9248H93.1705Z" fill="#111111"/>
<path d="M106.697 12.9248L106.454 15.6184H99.3161V19.5511H105.242V22.1908H99.3161V26.2312H106.831V28.9248H96.2993V12.9248H106.697Z" fill="#111111"/>
<path d="M125.076 12.9248V28.9248H122.436L115.675 19.4702C115.442 19.165 115.226 18.8508 115.029 18.5275C114.831 18.2043 114.652 17.899 114.49 17.6117H114.382V28.9248H111.473V12.9248H114.436L120.874 21.9215C121.107 22.2447 121.323 22.5679 121.52 22.8911C121.736 23.1963 121.915 23.4927 122.059 23.78H122.166V12.9248H125.076Z" fill="#111111"/>
<path d="M144.336 20.9248C144.336 22.5051 143.977 23.8967 143.258 25.0999C142.54 26.303 141.517 27.2458 140.188 27.9281C138.859 28.5926 137.278 28.9248 135.447 28.9248H130.033V12.9248H135.447C137.278 12.9248 138.859 13.266 140.188 13.9484C141.517 14.6128 142.54 15.5466 143.258 16.7497C143.977 17.9349 144.336 19.3266 144.336 20.9248ZM141.185 20.9248C141.185 19.7935 140.951 18.8238 140.484 18.0157C140.017 17.2076 139.353 16.5881 138.491 16.1571C137.629 15.7261 136.614 15.5107 135.447 15.5107H133.05V26.339H135.447C136.632 26.339 137.647 26.1235 138.491 25.6925C139.353 25.2615 140.017 24.6419 140.484 23.8338C140.951 23.0079 141.185 22.0382 141.185 20.9248Z" fill="#111111"/>
<path d="M159.098 12.9248L158.855 15.6184H151.717V19.5511H157.643V22.1908H151.717V26.2312H159.233V28.9248H148.7V12.9248H159.098Z" fill="#111111"/>
<path d="M175.379 18.1773C175.379 19.2907 175.064 20.2334 174.436 21.0056C173.825 21.7598 173.052 22.2805 172.118 22.5679L176.428 28.9248H172.9L169.129 23.2951H166.597V28.9248H163.581V12.9248H168.914C170.26 12.9248 171.418 13.1313 172.388 13.5443C173.358 13.9394 174.094 14.532 174.597 15.3221C175.118 16.0943 175.379 17.046 175.379 18.1773ZM172.308 18.1773C172.308 17.5309 172.155 17.0101 171.85 16.615C171.562 16.202 171.158 15.9057 170.638 15.7262C170.117 15.5286 169.506 15.4299 168.805 15.4299H166.597V20.9248H168.805C169.506 20.9248 170.117 20.826 170.638 20.6285C171.158 20.431 171.562 20.1347 171.85 19.7396C172.155 19.3266 172.308 18.8058 172.308 18.1773Z" fill="#111111"/>
<circle cx="20.1777" cy="20.9248" r="20" fill="#7E54E2"/>
<path d="M19.206 30.6493C17.1316 29.6299 15.7724 26.6156 15.6595 23.6464C15.5466 20.6772 16.2453 18.6931 18.4216 17.2223C19.0747 16.781 19.4636 15.877 20.7167 16.2322C21.9697 16.5874 23.4911 18.1507 24.1388 20.7294C24.7865 23.3081 24.2606 25.8358 23.5537 27.4828C22.8468 29.1298 21.2803 31.6688 19.206 30.6493Z" fill="white"/>
<path d="M15.1084 26.718C14.4902 24.7505 14.4659 22.3794 14.772 21.3934C14.8153 21.2791 14.772 21.1684 14.642 21.1455C14.3816 21.0749 13.9595 20.9835 13.2652 20.9099C12.2193 20.7991 9.84586 20.4829 8.72068 21.8068C7.59549 23.1306 7.98637 24.3315 9.76046 27.6309C11.5345 30.9304 12.8142 31.8804 14.2367 31.9242C15.1897 31.9536 16.2237 31.2619 16.8024 30.8021C17.0778 30.5833 17.1183 30.1942 16.9246 29.9006C16.3775 29.0716 15.3356 27.4413 15.1084 26.718Z" fill="white"/>
<path d="M7.89362 17.7152C8.00982 19.0134 8.46224 20.0695 8.62571 20.416C8.65687 20.482 8.73775 20.5057 8.80267 20.4723C9.11725 20.3104 10.0485 19.8957 11.4224 19.8426C13.1349 19.7764 14.1635 20.3345 14.8412 20.2796C15.0504 20.2626 15.1381 19.6118 15.0406 19.2761C14.9432 18.9405 13.7959 17.4048 12.7388 16.453C11.5247 15.3599 10.2632 14.1096 9.18618 14.2444C8.10916 14.3792 7.75104 16.1221 7.89362 17.7152Z" fill="white"/>
<path d="M20.3041 15.131C19.4194 15.174 18.8561 15.407 18.4862 15.776C18.41 15.8521 18.2516 15.7839 18.2678 15.6774C18.5012 14.1472 18.8653 12.2441 20.0294 11.724C21.6476 11.001 22.3352 11.2903 23.9647 10.6723C25.541 10.0745 26.2015 11.2428 26.0198 13.2355C25.8815 14.7528 24.9269 16.884 24.2906 18.1278C24.2525 18.2022 24.146 18.1994 24.1079 18.125C23.217 16.3852 21.4294 15.0762 20.3041 15.131Z" fill="white"/>
<path d="M24.5647 31.6588C24.1592 31.6961 23.3523 31.4532 23.0044 31.0265C22.8266 30.8084 22.8649 30.4988 22.9843 30.2439C23.3719 29.4171 24.2741 28.4947 24.6006 27.6763C25.2588 26.0264 25.4811 24.5745 25.3806 23.6457C25.2385 22.333 26.0924 21.6184 27.9237 20.8383C30.4144 19.7773 32.1012 22.1793 31.7333 23.5286C31.3191 25.0481 31.278 26.7575 29.639 28.7138C28.3615 30.2386 25.7576 31.549 24.5647 31.6588Z" fill="white"/>
<path d="M30.0635 16.9296C32.107 16.9672 33.3297 17.9865 31.4687 20.3137C31.4177 20.3774 31.324 20.3894 31.2581 20.3413C30.6538 19.8999 29.6492 19.3436 28.2712 19.6907C27.2875 19.9385 26.1119 20.6155 25.3802 21.4235C25.3429 21.4646 25.2724 21.4438 25.2649 21.3888C25.2223 21.0766 25.1043 20.3249 24.8897 19.7593C24.8364 19.6186 24.8323 19.4603 24.9015 19.3267C26.1901 16.8388 28.8105 16.9066 30.0635 16.9296Z" fill="white"/>
<path d="M32.4646 11.8835C32.7001 13.7224 31.3761 14.9129 30.32 15.2593C29.2639 15.6057 27.7007 15.4061 27.6243 14.607C27.5478 13.8079 29.119 12.1439 29.7542 10.6752C30.3894 9.20662 32.2291 10.0446 32.4646 11.8835Z" fill="white"/>
</svg>
