<svg width="128" height="41" viewBox="0 0 128 41" fill="none" xmlns="http://www.w3.org/2000/svg">
<g clip-path="url(#clip0_231_767)">
<mask id="mask0_231_767" style="mask-type:luminance" maskUnits="userSpaceOnUse" x="0" y="1" width="166" height="40">
<path d="M165.778 1.00293H0.177734V40.8465H165.778V1.00293Z" fill="white"/>
</mask>
<g mask="url(#mask0_231_767)">
<path d="M48.2402 14.7381H52.0782V25.3692H54.1216V14.7381H57.9596V12.9248H48.2402V14.7381Z" fill="#111111"/>
<path d="M60.8542 25.4221L60.4989 26.3109C60.2146 27.0576 59.7913 27.2354 59.045 27.2354L58.314 28.9243H60.0014C61.334 28.9243 61.7249 28.2666 62.2935 26.791L66.4158 16.2666H64.3724L61.9026 23.1821L59.3617 16.2666H57.3184L60.8542 25.4221Z" fill="#111111"/>
<path d="M71.8949 16.1602C70.4733 16.1602 69.5316 16.8179 68.9277 17.6179L68.6965 16.2668H67.0264V28.9246H68.9456V24.089C69.5141 24.9068 70.4912 25.4756 71.8949 25.4756C74.3827 25.4756 76.195 23.6267 76.195 20.8179C76.195 17.9024 74.3827 16.1602 71.8949 16.1602ZM71.575 23.8579C69.976 23.8579 68.9277 22.5957 68.9277 20.7824C68.9277 19.0224 69.976 17.7957 71.575 17.7957C73.1744 17.7957 74.2402 19.0224 74.2402 20.8179C74.2402 22.5957 73.1744 23.8579 71.575 23.8579Z" fill="#111111"/>
<path d="M81.6983 25.4756C83.955 25.4756 85.4827 24.1068 85.8026 22.3112H83.8837C83.6172 23.3245 82.7641 23.9112 81.5917 23.9112C80.0814 23.9112 79.1038 22.8979 79.0505 21.3512V21.2268H85.9092C85.9446 20.9779 85.9625 20.729 85.9625 20.4979C85.9092 17.8313 84.1503 16.1602 81.5204 16.1602C78.8372 16.1602 77.043 18.0268 77.043 20.8356C77.043 23.6267 78.8372 25.4756 81.6983 25.4756ZM79.1218 19.8224C79.2638 18.5246 80.3121 17.7068 81.5384 17.7068C82.8707 17.7068 83.8125 18.4713 83.9724 19.8224H79.1218Z" fill="#111111"/>
<path d="M88.9399 25.3688H91.0187L93.0087 19.1821L94.9276 25.3688H96.9884L100.009 16.2666H98.0547L95.9052 23.2355L93.9151 16.2666H92.1557L90.0769 23.2355L87.9981 16.2666H85.9727L88.9399 25.3688Z" fill="#111111"/>
<path d="M100.668 25.3688H102.586V16.2666H100.668V25.3688Z" fill="#111111"/>
<path d="M103.72 22.3648C103.773 24.3381 105.443 25.4759 107.877 25.4759C110.08 25.4759 111.733 24.3737 111.733 22.6315C111.733 20.6048 110.045 20.1782 107.966 19.9292C106.651 19.787 105.78 19.6804 105.78 18.827C105.78 18.0982 106.527 17.6359 107.664 17.6359C108.801 17.6359 109.583 18.2226 109.69 19.0581H111.573C111.448 17.1915 109.867 16.1604 107.628 16.1604C105.443 16.1426 103.897 17.2626 103.897 18.9871C103.897 20.8715 105.532 21.3159 107.61 21.5648C109.014 21.7426 109.849 21.8137 109.849 22.7915C109.849 23.5204 109.068 23.9826 107.877 23.9826C106.491 23.9826 105.674 23.307 105.603 22.3648H103.72Z" fill="#111111"/>
<path d="M117.185 25.4756C119.44 25.4756 120.969 24.1067 121.288 22.3112H119.37C119.103 23.3245 118.25 23.9112 117.078 23.9112C115.567 23.9112 114.59 22.8979 114.537 21.3512V21.2267H121.396C121.431 20.9779 121.449 20.729 121.449 20.4979C121.396 17.8313 119.636 16.1602 117.007 16.1602C114.324 16.1602 112.529 18.0268 112.529 20.8356C112.529 23.6267 114.324 25.4756 117.185 25.4756ZM114.608 19.8223C114.75 18.5246 115.798 17.7068 117.024 17.7068C118.357 17.7068 119.298 18.4712 119.458 19.8223H114.608Z" fill="#111111"/>
<mask id="mask1_231_767" style="mask-type:luminance" maskUnits="userSpaceOnUse" x="0" y="1" width="40" height="40">
<path d="M39.8799 1.00293H0.177734V40.8466H39.8799V1.00293Z" fill="white"/>
</mask>
<g mask="url(#mask1_231_767)">
<path d="M16.9145 40.7406C22.1679 39.6516 27.3456 38.2226 32.4151 36.4626C33.1422 36.2112 33.8026 35.7969 34.3465 35.2511C34.8902 34.7054 35.3031 34.0426 35.5537 33.3129C37.2862 28.2194 38.7015 23.0227 39.7913 17.753C39.9437 17.0179 39.926 16.2577 39.7398 15.5306C39.5536 14.8036 39.2038 14.129 38.7173 13.5589C35.1782 9.51705 31.3797 5.71193 27.3457 2.16777C26.7785 1.67846 26.1055 1.32885 25.3798 1.14681C24.6543 0.964774 23.8964 0.955338 23.1665 1.11926C17.9109 2.20641 12.7317 3.63684 7.66178 5.40139C6.93409 5.65173 6.27304 6.06566 5.72908 6.61154C5.18513 7.15744 4.77267 7.82085 4.52323 8.55114C2.78484 13.6417 1.36807 18.8373 0.281358 24.1069C0.128205 24.8416 0.145014 25.6016 0.33049 26.3288C0.515966 27.0559 0.865166 27.7305 1.35123 28.301C4.89143 32.3403 8.68997 36.144 12.7228 39.6878C13.2962 40.1665 13.9696 40.5091 14.6932 40.6906C15.4167 40.8722 16.1716 40.8878 16.902 40.7363" fill="#1D58E2"/>
<path d="M18.0439 21.6032C17.8974 21.5662 17.745 21.5584 17.5954 21.5806C17.4459 21.6027 17.3022 21.6542 17.1726 21.7321C17.043 21.8101 16.9299 21.9128 16.8399 22.0347C16.7499 22.1564 16.6846 22.2949 16.6481 22.4421L15.7496 26.3677C15.6359 26.8717 15.3749 27.33 15.0002 27.6844C14.6254 28.0386 14.1538 28.2727 13.6458 28.3563C13.1378 28.4402 12.6164 28.3699 12.1484 28.1547C11.6804 27.9392 11.287 27.5887 11.0187 27.1477C10.6641 26.5593 10.5488 25.8564 10.6969 25.185L13.0539 12.4267C13.0918 12.2705 13.0976 12.1082 13.0708 11.9497C13.0439 11.7913 12.985 11.64 12.8979 11.5052C12.8106 11.3704 12.6968 11.255 12.5634 11.1659C12.4301 11.077 12.28 11.0163 12.1224 10.9876C11.9648 10.959 11.803 10.963 11.647 10.9994C11.491 11.0358 11.3442 11.1038 11.2153 11.1993C11.0865 11.2948 10.9785 11.4158 10.8979 11.5547C10.8174 11.6936 10.7661 11.8476 10.747 12.0072L9.89864 16.5703L6.78935 17.6189C6.64365 17.6666 6.50895 17.7431 6.39314 17.8438C6.27733 17.9445 6.18278 18.0675 6.11502 18.2055C6.04726 18.3435 6.00767 18.4935 5.99859 18.6471C5.98953 18.8007 6.01114 18.9544 6.06216 19.0993C6.14323 19.3401 6.29891 19.5486 6.50643 19.6943C6.71396 19.8398 6.96247 19.915 7.21562 19.9087C7.32464 19.9033 7.43264 19.885 7.53742 19.8543L9.41808 19.2335L8.39832 24.6859C8.23568 25.4265 8.24424 26.1946 8.42336 26.9313C8.6024 27.6681 8.94728 28.3539 9.43144 28.9362C9.9156 29.5184 10.5262 29.9816 11.2165 30.2904C11.9067 30.5991 12.6582 30.745 13.4134 30.717C14.2393 30.6759 15.0421 30.4294 15.7496 29.9998C16.3019 29.6625 16.781 29.2174 17.1586 28.6907C17.5363 28.164 17.8046 27.5666 17.9478 26.9339L18.8589 23.0293C18.9017 22.8819 18.9144 22.7273 18.8963 22.5749C18.8783 22.4225 18.8298 22.2754 18.7537 22.1423C18.6776 22.0091 18.5754 21.8927 18.4534 21.8001C18.3315 21.7075 18.1922 21.6406 18.0439 21.6032Z" fill="white"/>
<path d="M16.3744 15.626C16.3263 15.4812 16.2502 15.3474 16.1502 15.2323C16.0502 15.1171 15.9286 15.0231 15.7921 14.9557C15.6556 14.8882 15.5072 14.8486 15.3553 14.8391C15.2035 14.8297 15.0512 14.8505 14.9075 14.9005L13.8376 15.2486L13.3779 17.8615L15.6306 17.1066C15.9246 17.0089 16.1678 16.7981 16.3073 16.5206C16.4467 16.2431 16.4709 15.9214 16.3744 15.626Z" fill="white"/>
<path d="M21.6371 28.5193C21.1867 28.5514 20.7342 28.5133 20.2956 28.4061C19.6642 28.2634 19.0679 27.9945 18.5422 27.6155C18.0166 27.2364 17.5725 26.7551 17.2364 26.2C16.8928 25.6528 16.6635 25.0415 16.5622 24.4027C16.4608 23.7639 16.4897 23.1113 16.6472 22.4841C16.7186 22.1843 16.9059 21.9253 17.1676 21.764C17.4294 21.6028 17.7442 21.5525 18.043 21.6243C18.3417 21.6961 18.5997 21.8839 18.7604 22.1467C18.9211 22.4094 18.9712 22.7254 18.8996 23.0251C18.8222 23.3573 18.8107 23.7015 18.8656 24.038C18.9208 24.3747 19.0415 24.6971 19.2208 24.9869C19.4 25.2767 19.6345 25.5282 19.9107 25.727C20.187 25.9257 20.4995 26.068 20.8304 26.1455C21.1616 26.2239 21.5051 26.236 21.841 26.181C22.1769 26.126 22.4987 26.0051 22.7879 25.8251C23.0772 25.6451 23.3282 25.4096 23.5265 25.1321C23.7248 24.8546 23.8668 24.5405 23.944 24.2079L24.8551 20.3074C24.8894 20.1581 24.9528 20.0173 25.0417 19.8927C25.1304 19.7681 25.243 19.6626 25.3726 19.5818C25.5024 19.5011 25.6467 19.4469 25.7973 19.4223C25.9479 19.3977 26.1019 19.4033 26.2504 19.4387C26.3988 19.474 26.5389 19.5385 26.6624 19.6284C26.786 19.7183 26.8907 19.8319 26.9702 19.9625C27.05 20.0931 27.1031 20.2383 27.1266 20.3895C27.1503 20.541 27.1438 20.6954 27.1076 20.8442L26.1965 24.7279C26.0527 25.3603 25.7841 25.9575 25.4066 26.484C25.029 27.0107 24.5501 27.4559 23.9983 27.7938C23.292 28.2472 22.4754 28.4981 21.6371 28.5193Z" fill="white"/>
<path d="M29.8425 26.3429C28.9685 26.3751 28.1013 26.1753 27.3287 25.7637C26.556 25.352 25.9051 24.7432 25.442 23.9985C25.0987 23.4518 24.8696 22.8411 24.7682 22.2031C24.667 21.5653 24.6957 20.9132 24.8526 20.2866C24.887 20.1375 24.9505 19.9965 25.0393 19.872C25.1282 19.7475 25.2406 19.6418 25.3704 19.5611C25.5 19.4805 25.6443 19.4261 25.7949 19.4016C25.9456 19.3771 26.0996 19.3827 26.248 19.4181C26.3964 19.4534 26.5365 19.5179 26.6601 19.6078C26.7837 19.6977 26.8883 19.8113 26.968 19.9419C27.0477 20.0725 27.1007 20.2177 27.1244 20.3689C27.1479 20.5202 27.1414 20.6748 27.1053 20.8235C27.0271 21.1557 27.0152 21.5 27.07 21.8368C27.1248 22.1736 27.2453 22.4962 27.4248 22.7862C27.6042 23.0761 27.8389 23.3276 28.1153 23.5263C28.3919 23.725 28.7048 23.8669 29.036 23.9439C29.7006 24.0976 30.3986 23.9837 30.9806 23.6272C31.5627 23.2705 31.9823 22.699 32.1495 22.0357L33.0605 18.1309C33.1321 17.8312 33.3193 17.5721 33.5811 17.4109C33.8429 17.2497 34.1577 17.1994 34.4565 17.2713C34.7552 17.3429 35.0133 17.5309 35.1739 17.7936C35.3345 18.0563 35.3847 18.3721 35.3132 18.672L34.4021 22.5724C34.1534 23.6127 33.5739 24.5433 32.7513 25.2237C31.9286 25.9038 30.9077 26.2968 29.8425 26.3429Z" fill="white"/>
</g>
</g>
</g>
<defs>
<clipPath id="clip0_231_767">
<rect width="127" height="40" fill="white" transform="translate(0.177734 0.924805)"/>
</clipPath>
</defs>
</svg>
