<svg width="146" height="41" viewBox="0 0 146 41" fill="none" xmlns="http://www.w3.org/2000/svg">
<path d="M16.5808 8.28461H38.0727L38.3787 6.91929C38.8261 4.8007 37.2252 2.7998 35.0596 2.7998H14.1797C11.4726 2.7998 9.14218 4.68299 8.55368 7.31947L3.98693 28.4113C3.53968 30.5298 5.14038 32.5308 7.30607 32.5308H8.57722L13.2381 10.9682C13.5912 9.41452 14.9801 8.28461 16.5808 8.28461Z" fill="#00CDFA"/>
<path d="M39.3442 8.28516H38.0731L33.4121 29.8477C33.0826 31.4013 31.6937 32.5313 30.0931 32.5313H8.60105L8.29504 33.8967C7.84779 36.0152 9.4485 38.0162 11.6142 38.0162H32.4941C35.2012 38.0162 37.5316 36.1328 38.1201 33.4965L42.6869 12.4282C43.1341 10.2861 41.5099 8.28516 39.3442 8.28516Z" fill="url(#paint0_linear_231_738)"/>
<path d="M33.4117 29.8477L38.0726 8.28516H16.5806C14.9799 8.28516 13.5911 9.39154 13.2615 10.9687L8.60059 32.5313H30.0926C31.6932 32.5313 33.0586 31.4013 33.4117 29.8477Z" fill="#3A00FF"/>
<path d="M15.5919 24.3035L14.0366 16.2178H16.4756L17.2267 21.2636L19.6922 16.2178H21.3357L22.2991 21.2636L24.5612 16.2178H27.0002L23.0501 24.3035H21.0089L20.0367 19.567L17.6597 24.3035H15.5919Z" fill="white"/>
<path d="M26.1445 22.9951L27.417 21.5195C27.9914 22.2263 28.716 22.5886 29.6085 22.5886C30.1829 22.5886 30.6865 22.3501 30.7662 21.9525C30.7927 21.7138 30.6335 21.5106 30.2624 21.3338C30.174 21.2896 29.9797 21.219 29.6704 21.113C29.0607 20.8743 28.7955 20.786 28.2654 20.4501C27.523 19.9906 27.1695 19.3545 27.2932 18.2586C27.5319 16.7652 28.9015 15.9346 30.6335 15.9346C31.8177 15.9346 32.7897 16.3234 33.5762 17.0922L32.3214 18.5591C31.8 18.0731 31.1992 17.8345 30.5187 17.8345C29.9709 17.8345 29.6439 17.9935 29.5732 18.3381C29.5114 18.621 29.6615 18.8595 30.015 19.0186C30.1299 19.0805 30.3685 19.1776 30.722 19.3101C31.0754 19.4428 31.3759 19.5576 31.6234 19.699C32.4185 20.0348 33.3554 20.8213 33.0725 22.0231C32.94 22.8096 32.5424 23.4281 31.8707 23.87C31.208 24.3118 30.4039 24.5328 29.5025 24.5328C28.0532 24.524 26.931 24.0201 26.1445 22.9951Z" fill="white"/>
<path d="M55.7666 27.5693H53.4828L49.0093 14.0547H51.9759L54.7071 23.143L57.7679 14.0547H59.4868L62.6181 23.143L65.3023 14.0547H68.2688L63.8189 27.5693H61.5351L58.6626 18.7165L55.7666 27.5693Z" fill="#111111"/>
<path d="M70.811 27.569H68.2212V17.6096H70.7169V18.9516C71.3055 17.8686 72.2237 17.3506 73.448 17.3506C73.8484 17.3506 74.2485 17.4212 74.6489 17.5625L74.4369 20.0346C73.9895 19.8935 73.6129 19.8228 73.2597 19.8228C72.5062 19.8228 71.9177 20.0818 71.4704 20.5761C71.0465 21.0706 70.811 21.8241 70.811 22.8365V27.569Z" fill="#111111"/>
<path d="M78.1338 14.9036C78.1338 15.3509 77.9927 15.7276 77.6865 16.0337C77.3805 16.3398 77.0038 16.481 76.5565 16.481C76.109 16.481 75.7323 16.3398 75.4263 16.0337C75.1202 15.7276 74.979 15.3509 74.979 14.9036C74.979 14.4562 75.1202 14.0795 75.4263 13.797C75.7323 13.4909 76.109 13.3496 76.5565 13.3496C77.0038 13.3496 77.3805 13.4909 77.6865 13.797C77.9927 14.0795 78.1338 14.4562 78.1338 14.9036ZM77.8278 17.6111V27.5706H75.238V17.6111H77.8278Z" fill="#111111"/>
<path d="M85.8342 24.9558L86.6112 26.9806C85.7872 27.5223 84.7982 27.8048 83.6682 27.8048C82.5144 27.8048 81.6669 27.4751 81.0782 26.816C80.4895 26.1566 80.207 25.1678 80.207 23.8728V19.7525H78.5825V17.5864H80.2305V14.0547H82.797V17.5864H86.0932V19.7525H82.797V23.708C82.797 24.8853 83.2679 25.4738 84.2097 25.4738C84.6805 25.4738 85.2455 25.309 85.8342 24.9558Z" fill="#111111"/>
<path d="M96.6169 22.3656C96.6169 22.6716 96.5933 23.0485 96.5226 23.4958H89.0354C89.4123 24.9085 90.3774 25.6148 91.9314 25.6148C93.0851 25.6148 94.1683 25.2851 95.1571 24.6023L96.1694 26.4153C94.8981 27.3335 93.4619 27.7808 91.8138 27.7808C90.0714 27.7808 88.7294 27.2865 87.7876 26.274C86.8694 25.2851 86.3984 24.0373 86.3984 22.5775C86.3984 21.0471 86.8694 19.7993 87.8348 18.834C88.8001 17.845 90.0479 17.3506 91.5783 17.3506C93.0381 17.3506 94.2153 17.798 95.1571 18.6926C96.1459 19.6108 96.6169 20.8351 96.6169 22.3656ZM91.6254 19.4931C90.9896 19.4931 90.4246 19.6815 89.9773 20.0581C89.5299 20.435 89.2238 20.9293 89.0591 21.5886H94.1211C94.0034 20.953 93.7209 20.435 93.2734 20.0581C92.8261 19.6815 92.2846 19.4931 91.6254 19.4931Z" fill="#111111"/>
<path d="M100.948 27.8285C99.2061 27.8285 97.8406 27.1928 96.8281 25.8978L98.1938 24.2733C98.547 24.6971 98.9708 25.0266 99.4651 25.2856C99.9596 25.5446 100.454 25.6623 100.948 25.6623C101.349 25.6623 101.655 25.5681 101.937 25.3798C102.196 25.1915 102.338 24.956 102.338 24.6735C102.338 24.3203 102.102 24.0378 101.631 23.826C101.49 23.7553 101.09 23.614 100.454 23.3785C99.889 23.1666 99.4651 23.0018 99.1826 22.837C98.029 22.2955 97.464 21.4243 97.464 20.2471C97.464 19.376 97.7935 18.6696 98.4763 18.081C99.1356 17.5159 100.054 17.2334 101.184 17.2334C102.597 17.2334 103.774 17.7043 104.669 18.6696L103.397 20.3413C102.691 19.682 101.937 19.3525 101.113 19.3525C100.784 19.3525 100.501 19.423 100.289 19.5878C100.077 19.7526 99.9596 19.941 99.9596 20.1765C99.9596 20.6003 100.242 20.9063 100.831 21.0946C102.126 21.5891 102.926 21.8953 103.232 22.06C104.362 22.6486 104.904 23.4963 104.904 24.5793C104.904 25.5211 104.527 26.2745 103.797 26.8866C103.091 27.5225 102.149 27.8285 100.948 27.8285Z" fill="#111111"/>
<path d="M105.373 22.5796C105.373 21.0963 105.867 19.872 106.88 18.8595C107.892 17.8471 109.164 17.3291 110.718 17.3291C112.272 17.3291 113.543 17.8471 114.555 18.8595C115.544 19.8485 116.062 21.0963 116.062 22.5796C116.062 24.063 115.568 25.3108 114.555 26.2996C113.543 27.312 112.272 27.8065 110.718 27.8065C109.164 27.8065 107.892 27.312 106.88 26.2996C105.867 25.3108 105.373 24.063 105.373 22.5796ZM108.74 24.6045C109.258 25.146 109.917 25.4285 110.718 25.4285C111.495 25.4285 112.13 25.146 112.672 24.6045C113.213 24.0393 113.472 23.3565 113.472 22.5796C113.472 21.8026 113.213 21.1198 112.672 20.5783C112.13 20.0368 111.495 19.7541 110.718 19.7541C109.917 19.7541 109.258 20.0368 108.74 20.5783C108.222 21.1198 107.963 21.7791 107.963 22.5796C107.963 23.3801 108.222 24.0628 108.74 24.6045Z" fill="#111111"/>
<path d="M119.712 27.569H117.123V17.6096H119.642V18.9986C119.901 18.5043 120.325 18.104 120.89 17.798C121.455 17.4919 122.067 17.3506 122.773 17.3506C123.856 17.3506 124.775 17.7038 125.528 18.4336C126.281 19.1635 126.658 20.176 126.658 21.4945V27.5925H124.068V22.2008C124.068 21.4238 123.88 20.8116 123.503 20.3878C123.126 19.964 122.608 19.7286 121.973 19.7286C121.29 19.7286 120.748 19.964 120.325 20.435C119.901 20.9058 119.689 21.518 119.689 22.2478V27.569H119.712Z" fill="#111111"/>
<path d="M131.085 14.9036C131.085 15.3509 130.944 15.7276 130.638 16.0337C130.332 16.3398 129.955 16.481 129.508 16.481C129.06 16.481 128.684 16.3398 128.378 16.0337C128.071 15.7276 127.93 15.3509 127.93 14.9036C127.93 14.4562 128.071 14.0795 128.378 13.797C128.684 13.4909 129.06 13.3496 129.508 13.3496C129.955 13.3496 130.332 13.4909 130.638 13.797C130.944 14.0795 131.085 14.4562 131.085 14.9036ZM130.779 17.6111V27.5706H128.189V17.6111H130.779Z" fill="#111111"/>
<path d="M137.112 27.8053C135.582 27.8053 134.311 27.3108 133.298 26.3455C132.309 25.3801 131.815 24.1323 131.815 22.602C131.815 21.0715 132.309 19.8236 133.322 18.8583C134.334 17.8695 135.629 17.375 137.183 17.375C138.196 17.375 139.137 17.6105 139.961 18.1048C140.785 18.5993 141.421 19.2821 141.821 20.1533L139.75 21.2835C139.137 20.271 138.29 19.7765 137.207 19.7765C136.383 19.7765 135.7 20.0591 135.182 20.6006C134.64 21.1421 134.381 21.8015 134.381 22.602C134.381 23.426 134.64 24.1088 135.158 24.6503C135.7 25.1918 136.359 25.4508 137.16 25.4508C137.678 25.4508 138.172 25.3095 138.666 25.027C139.137 24.7445 139.491 24.3913 139.702 23.944L141.798 25.1683C141.374 25.9688 140.738 26.6045 139.914 27.099C139.067 27.5463 138.125 27.8053 137.112 27.8053Z" fill="#111111"/>
<defs>
<linearGradient id="paint0_linear_231_738" x1="8.21927" y1="23.154" x2="42.7527" y2="23.154" gradientUnits="userSpaceOnUse">
<stop stop-color="#FFB3FF"/>
<stop offset="0.5335" stop-color="#FF76DF"/>
<stop offset="1" stop-color="#C239C6"/>
</linearGradient>
</defs>
</svg>
