<svg width="135" height="41" viewBox="0 0 135 41" fill="none" xmlns="http://www.w3.org/2000/svg">
<path fill-rule="evenodd" clip-rule="evenodd" d="M88.7149 16.5377C89.8269 16.5377 90.6994 16.8844 91.3354 17.5788C91.972 18.2722 92.3116 19.2617 92.3576 20.5459C92.3673 20.6706 92.3724 20.8386 92.3738 21.0503L92.3743 21.1826C92.3743 21.4577 92.3692 21.6757 92.3576 21.836C92.3116 23.0758 91.9675 24.0503 91.3272 24.7614C90.685 25.4725 89.8135 25.828 88.7149 25.828C87.6029 25.828 86.7719 25.4492 86.2229 24.6926V28.4944C86.2229 28.6209 86.1824 28.724 86.1021 28.8039C86.0223 28.8849 85.9193 28.9248 85.7929 28.9248H83.5763C83.451 28.9248 83.3441 28.8849 83.2588 28.8039C83.1724 28.724 83.1291 28.6209 83.1291 28.4944V17.1395C83.1291 17.0136 83.1724 16.9099 83.2588 16.8306C83.3441 16.7496 83.451 16.7091 83.5763 16.7091H85.6212C85.747 16.7091 85.8505 16.7496 85.9297 16.8306C86.0112 16.9099 86.0505 17.0136 86.0505 17.1395V17.7591C86.6699 16.9443 87.5569 16.5377 88.7149 16.5377ZM55.5491 13.4408C56.558 13.4408 57.4306 13.6155 58.1702 13.9655C58.9087 14.3155 59.4767 14.7509 59.8705 15.2723C60.2667 15.7948 60.475 16.3079 60.4988 16.8127C60.4988 16.9158 60.4634 17.0046 60.3952 17.0795C60.3265 17.1544 60.2412 17.1915 60.1382 17.1915H57.7314C57.4799 17.1915 57.2849 17.0878 57.148 16.8815C57.0793 16.6407 56.9004 16.4372 56.615 16.2708C56.3286 16.1043 55.9735 16.0211 55.5491 16.0211C55.0682 16.0211 54.6964 16.1071 54.4322 16.2791C54.169 16.4516 54.0378 16.7034 54.0378 17.0362C54.0378 17.3696 54.2083 17.6297 54.5529 17.8194C54.8964 18.0086 55.5386 18.201 56.4766 18.3957C57.5536 18.591 58.4107 18.8345 59.0456 19.1268C59.6821 19.4191 60.152 19.7979 60.4556 20.2622C60.7592 20.727 60.9116 21.3144 60.9116 22.0256C60.9116 22.806 60.6877 23.4827 60.2412 24.0557C59.794 24.6298 59.1758 25.0685 58.3846 25.3719C57.594 25.6759 56.6893 25.8279 55.6698 25.8279C54.558 25.8279 53.6128 25.667 52.8338 25.3464C52.0549 25.0252 51.4642 24.6009 51.0648 24.0729C50.6631 23.5459 50.4504 22.9718 50.4282 22.3528C50.4282 22.2496 50.4665 22.1637 50.5401 22.0949C50.6143 22.0256 50.7036 21.9911 50.8061 21.9911H53.0926C53.2294 21.9911 53.3413 22.0139 53.4266 22.0605C53.5136 22.1059 53.6072 22.1864 53.7103 22.3012C53.8588 22.5764 54.0915 22.8032 54.4073 22.9802C54.7214 23.1593 55.1424 23.2469 55.6698 23.2469C56.2876 23.2469 56.7635 23.1527 57.096 22.9635C57.4278 22.7744 57.594 22.5137 57.594 22.1808C57.594 21.9396 57.5087 21.7421 57.3369 21.5873C57.1646 21.4321 56.8893 21.2945 56.512 21.1746C56.1341 21.0537 55.589 20.9195 54.8793 20.7698C53.492 20.4946 52.4559 20.0758 51.7695 19.5134C51.0814 18.9521 50.7373 18.1489 50.7373 17.1055C50.7373 16.3939 50.9357 15.7604 51.3302 15.2041C51.7263 14.6483 52.287 14.2151 53.0139 13.9056C53.743 13.595 54.5873 13.4408 55.5491 13.4408ZM119.991 16.5377C120.976 16.5377 121.81 16.7352 122.491 17.1312C123.173 17.5267 123.682 18.0714 124.021 18.7653C124.358 19.4598 124.527 20.248 124.527 21.1316V21.5609C124.527 21.6874 124.485 21.7933 124.399 21.8798C124.314 21.9653 124.207 22.0085 124.081 22.0085H118.634V22.1117C118.645 22.6281 118.766 23.0441 118.995 23.3592C119.223 23.6747 119.55 23.8323 119.974 23.8323C120.249 23.8323 120.469 23.778 120.635 23.6681C120.801 23.56 120.96 23.4191 121.107 23.2466C121.211 23.1328 121.294 23.0613 121.356 23.0325C121.42 23.0036 121.52 22.9898 121.657 22.9898H123.909C124.012 22.9898 124.101 23.0208 124.176 23.084C124.25 23.1473 124.286 23.2243 124.286 23.3159C124.286 23.6149 124.118 23.9638 123.78 24.3659C123.441 24.7669 122.949 25.1114 122.302 25.3977C121.654 25.6844 120.89 25.828 120.009 25.828C118.61 25.828 117.511 25.452 116.708 24.7015C115.906 23.9499 115.494 22.8577 115.472 21.4234V20.8897C115.516 19.5257 115.94 18.4586 116.743 17.6898C117.545 16.9221 118.627 16.5377 119.991 16.5377ZM134.562 13.4408C134.689 13.4408 134.795 13.4813 134.88 13.5612C134.966 13.6416 135.009 13.7442 135.009 13.8702V25.2261C135.009 25.3525 134.966 25.4558 134.88 25.5356C134.795 25.616 134.689 25.656 134.562 25.656H132.516C132.402 25.656 132.303 25.6133 132.216 25.5273C132.131 25.4413 132.086 25.3409 132.086 25.2261V24.6925C131.469 25.4491 130.581 25.8279 129.424 25.8279C128.313 25.8279 127.439 25.4779 126.803 24.7785C126.168 24.0791 125.827 23.0811 125.782 21.7849L125.763 21.1825L125.782 20.564C125.827 19.3133 126.17 18.3298 126.812 17.6131C127.452 16.8965 128.324 16.5376 129.424 16.5376C130.456 16.5376 131.285 16.8704 131.915 17.5349V13.8702C131.915 13.7442 131.959 13.6416 132.043 13.5612C132.131 13.4813 132.231 13.4408 132.346 13.4408H134.562ZM64.95 16.709C65.0758 16.709 65.1827 16.7495 65.2674 16.8305C65.3528 16.9098 65.3966 17.0135 65.3966 17.1394V25.2261C65.3966 25.3525 65.3528 25.4558 65.2674 25.5356C65.1827 25.616 65.0758 25.6554 64.95 25.6554H62.8021C62.6873 25.6554 62.5865 25.6133 62.5012 25.5273C62.4148 25.4413 62.3715 25.3409 62.3715 25.2261V17.1394C62.3715 17.0135 62.4148 16.9098 62.5012 16.8305C62.5865 16.7495 62.6873 16.709 62.8021 16.709H64.95ZM78.0778 16.5376C79.0175 16.5376 79.7826 16.8554 80.3727 17.4928C80.9615 18.129 81.2563 19.0781 81.2563 20.3394V25.2261C81.2563 25.3409 81.2175 25.4413 81.1367 25.5273C81.0563 25.6133 80.9533 25.6554 80.8275 25.6554H78.7144C78.5881 25.6554 78.4823 25.616 78.3953 25.5356C78.3099 25.4558 78.2668 25.3525 78.2668 25.2261V20.4598C78.2668 19.9328 78.1549 19.5456 77.9321 19.2988C77.7083 19.0525 77.408 18.9288 77.0301 18.9288C76.675 18.9288 76.3853 19.0525 76.162 19.2988C75.9382 19.5456 75.8263 19.9328 75.8263 20.4598V25.2261C75.8263 25.3409 75.7869 25.4413 75.706 25.5273C75.6263 25.6133 75.5226 25.6554 75.3969 25.6554H73.2838C73.1581 25.6554 73.0517 25.616 72.9653 25.5356C72.8794 25.4558 72.8361 25.3525 72.8361 25.2261V20.4598C72.8361 19.9328 72.7215 19.5456 72.4938 19.2988C72.2644 19.0525 71.9664 18.9288 71.6001 18.9288C71.245 18.9288 70.9524 19.0525 70.7231 19.2988C70.4943 19.5456 70.3796 19.9267 70.3796 20.4425V25.2261C70.3796 25.3409 70.3386 25.4413 70.2588 25.5273C70.179 25.6133 70.076 25.6554 69.9496 25.6554H67.7851C67.6704 25.6554 67.5695 25.6133 67.4843 25.5273C67.3978 25.4413 67.3546 25.3409 67.3546 25.2261V17.1394C67.3546 17.0135 67.3978 16.9098 67.4843 16.8305C67.5695 16.7495 67.6704 16.709 67.7851 16.709H69.7779C69.9037 16.709 70.0073 16.7495 70.0865 16.8305C70.1669 16.9098 70.2073 17.0135 70.2073 17.1394V17.7241C70.4827 17.3918 70.8378 17.1111 71.2727 16.8815C71.7076 16.6524 72.2018 16.5376 72.7509 16.5376C74.0107 16.5376 74.8756 17.0307 75.3448 18.0169C75.6207 17.5815 76.0041 17.226 76.4977 16.9508C76.9897 16.6752 77.5166 16.5376 78.0778 16.5376ZM96.6204 13.4407C96.7462 13.4407 96.8492 13.4812 96.9296 13.561C97.0088 13.6415 97.0498 13.7446 97.0498 13.8705V25.2259C97.0498 25.3408 97.0088 25.4412 96.9296 25.5272C96.8492 25.6137 96.7462 25.6558 96.6204 25.6558H94.4719C94.3467 25.6558 94.2398 25.6165 94.155 25.5354C94.068 25.4556 94.0248 25.3524 94.0248 25.2259V13.8705C94.0248 13.7446 94.068 13.6415 94.155 13.561C94.2398 13.4812 94.3467 13.4407 94.4719 13.4407H96.6204ZM101.586 16.709C101.712 16.709 101.818 16.7495 101.904 16.8305C101.989 16.9098 102.033 17.0135 102.033 17.1394V25.2261C102.033 25.3525 101.989 25.4558 101.904 25.5356C101.818 25.616 101.712 25.6554 101.586 25.6554H99.4383C99.3237 25.6554 99.2228 25.6133 99.1375 25.5273C99.051 25.4413 99.0079 25.3409 99.0079 25.2261V17.1394C99.0079 17.0135 99.051 16.9098 99.1375 16.8305C99.2228 16.7495 99.3237 16.709 99.4383 16.709H101.586ZM113.428 12.9248C113.553 12.9248 113.656 12.9642 113.736 13.0452C113.816 13.1256 113.857 13.2288 113.857 13.3547V14.8346C113.857 14.9494 113.816 15.0492 113.736 15.1352C113.656 15.2217 113.553 15.2639 113.428 15.2639H109.011C108.643 15.2639 108.383 15.3476 108.228 15.5135C108.074 15.6799 107.997 15.9356 107.997 16.2795V16.7088H113.428C113.553 16.7088 113.656 16.7499 113.736 16.8303C113.816 16.9102 113.857 17.0139 113.857 17.1398V25.2259C113.857 25.3408 113.816 25.4412 113.736 25.5272C113.656 25.6137 113.553 25.6558 113.428 25.6558H111.329C111.204 25.6558 111.099 25.6165 111.012 25.5354C110.927 25.4556 110.884 25.3524 110.884 25.2259V19.0496H107.997V25.2259C107.997 25.3408 107.957 25.4412 107.877 25.5272C107.796 25.6137 107.692 25.6558 107.566 25.6558H105.47C105.344 25.6558 105.238 25.6165 105.152 25.5354C105.066 25.4556 105.024 25.3524 105.024 25.2259V19.0496H103.734C103.609 19.0496 103.502 19.0097 103.417 18.9292C103.33 18.8482 103.288 18.7456 103.288 18.6192V17.1398C103.288 17.0139 103.33 16.9102 103.417 16.8303C103.502 16.7499 103.609 16.7088 103.734 16.7088H105.024V16.193C105.024 15.0465 105.355 14.215 106.019 13.6991C106.684 13.1822 107.634 12.9248 108.873 12.9248H113.428ZM130.42 18.9294C129.905 18.9294 129.535 19.0808 129.313 19.3848C129.089 19.6887 128.96 20.1098 128.925 20.6489L128.908 21.1825L128.925 21.7161C128.96 22.2552 129.089 22.6768 129.313 22.9802C129.535 23.2847 129.905 23.4373 130.42 23.4373C130.912 23.4373 131.28 23.2792 131.521 22.9636C131.762 22.648 131.893 22.2497 131.915 21.7683C131.939 21.4466 131.95 21.2285 131.95 21.1137C131.95 20.9878 131.939 20.7759 131.915 20.4781C131.893 20.0304 131.758 19.6599 131.512 19.3676C131.265 19.0753 130.901 18.9294 130.42 18.9294ZM87.7176 18.9289C87.2251 18.9289 86.8588 19.0865 86.6184 19.402C86.3779 19.7171 86.2467 20.1165 86.2229 20.598C86.2132 20.7223 86.2081 20.894 86.2067 21.1141L86.2062 21.2519C86.2062 21.5271 86.2113 21.7395 86.2229 21.8882C86.2467 22.3358 86.3808 22.7052 86.6267 22.9975C86.8733 23.2904 87.2367 23.4368 87.7176 23.4368C88.234 23.4368 88.603 23.2848 88.8268 22.9803C89.05 22.6769 89.1792 22.2548 89.2124 21.7162C89.224 21.6019 89.2307 21.4234 89.2307 21.1826C89.2307 20.9413 89.224 20.7638 89.2124 20.649C89.1792 20.1099 89.05 19.6883 88.8268 19.3849C88.603 19.0809 88.234 18.9289 87.7176 18.9289ZM119.991 18.4819C119.555 18.4819 119.22 18.6339 118.986 18.9373C118.751 19.2412 118.634 19.6689 118.634 20.2191V20.2535H121.365V20.2191C121.365 19.6689 121.245 19.2412 121.004 18.9373C120.764 18.6339 120.427 18.4819 119.991 18.4819ZM64.95 12.976C65.0758 12.976 65.1827 13.0193 65.2674 13.1052C65.3528 13.1912 65.3966 13.2972 65.3966 13.4231V15.0233C65.3966 15.1504 65.3528 15.2557 65.2674 15.3417C65.1827 15.4277 65.0758 15.471 64.95 15.471H62.8021C62.6746 15.471 62.5727 15.4277 62.4912 15.3417C62.412 15.2557 62.3715 15.1504 62.3715 15.0233V13.4231C62.3715 13.2972 62.4148 13.1912 62.5012 13.1052C62.5865 13.0193 62.6873 12.976 62.8021 12.976H64.95ZM101.586 12.976C101.712 12.976 101.818 13.0193 101.904 13.1052C101.989 13.1912 102.033 13.2972 102.033 13.4231V15.0233C102.033 15.1504 101.989 15.2557 101.904 15.3417C101.818 15.4277 101.712 15.471 101.586 15.471H99.4383C99.3109 15.471 99.2089 15.4277 99.1275 15.3417C99.0483 15.2557 99.0079 15.1504 99.0079 15.0233V13.4231C99.0079 13.2972 99.051 13.1912 99.1375 13.1052C99.2228 13.0193 99.3237 12.976 99.4383 12.976H101.586Z" fill="#111111"/>
<circle cx="20.4282" cy="20.9248" r="20" fill="#111111"/>
<path fill-rule="evenodd" clip-rule="evenodd" d="M28.8943 17.8022V24.9397L28.4488 25.3857L24.8839 28.9554L22.6562 31.1857C21.6713 32.1712 20.0757 32.1712 19.0914 31.1857C18.107 30.2002 18.107 28.6021 19.0914 27.6166L21.319 25.3857L24.8839 21.8173L25.3294 21.3712L28.8943 17.8022ZM28.0034 16.9099L24.4385 20.4789L23.9929 20.925L20.4281 24.4941L19.9825 24.9401H12.8528L16.8632 20.925L20.4281 17.3559L20.8736 16.9099H28.0034ZM18.2 10.6639C19.1843 9.67843 20.7805 9.67843 21.7649 10.6639C22.7492 11.6494 22.7492 13.2475 21.7649 14.233L15.5262 20.479L11.9619 24.0474V16.9099L12.4074 16.4633L15.9717 12.8948L18.2 10.6639Z" fill="#FFAD00"/>
</svg>
