<svg width="30" height="31" viewBox="0 0 30 31" fill="none" xmlns="http://www.w3.org/2000/svg">
<path d="M9.64272 28.5042C14.3766 28.5042 18.2141 24.6666 18.2141 19.9328C18.2141 15.1989 14.3766 11.3613 9.64272 11.3613C4.90885 11.3613 1.07129 15.1989 1.07129 19.9328C1.07129 24.6666 4.90885 28.5042 9.64272 28.5042Z" stroke="white" stroke-width="1.5" stroke-linecap="round" stroke-linejoin="round"/>
<path d="M20.3566 28.5042C25.0905 28.5042 28.928 24.6666 28.928 19.9328C28.928 15.1989 25.0905 11.3613 20.3566 11.3613C15.6227 11.3613 11.7852 15.1989 11.7852 19.9328C11.7852 24.6666 15.6227 28.5042 20.3566 28.5042Z" stroke="white" stroke-width="1.5" stroke-linecap="round" stroke-linejoin="round"/>
<path d="M15.0001 19.9319C19.734 19.9319 23.5716 16.0944 23.5716 11.3605C23.5716 6.62662 19.734 2.78906 15.0001 2.78906C10.2663 2.78906 6.42871 6.62662 6.42871 11.3605C6.42871 16.0944 10.2663 19.9319 15.0001 19.9319Z" stroke="white" stroke-width="1.5" stroke-linecap="round" stroke-linejoin="round"/>
</svg>
