<svg width="83" height="41" viewBox="0 0 83 41" fill="none" xmlns="http://www.w3.org/2000/svg">
<g clip-path="url(#clip0_249_229)">
<mask id="mask0_249_229" style="mask-type:luminance" maskUnits="userSpaceOnUse" x="-161" y="-78" width="405" height="198">
<path d="M-160.452 119.105H243.324V-77.8997H-160.452V119.105Z" fill="white"/>
</mask>
<g mask="url(#mask0_249_229)">
<path d="M80.9784 22.9631C80.4549 22.5674 80.3687 22.5068 77.222 21.4705C79.9475 20.8002 80.0646 20.7289 80.5477 20.4112C81.642 19.6696 82.2261 18.4395 82.1413 17.107L82.1305 16.9617C81.9085 14.823 79.1534 10.788 77.2987 9.88216C76.0753 9.29803 74.7146 9.38012 73.6432 10.1002C73.1385 10.434 73.0712 10.4798 70.9999 13.3075C70.798 10.0033 70.409 4.17682 70.3134 3.63173L70.2933 3.50658L70.2623 3.38545C69.9083 2.10549 68.9043 1.14452 67.5745 0.81073C65.3551 0.257561 59.4856 1.91167 57.9109 3.53484C56.9862 4.49986 56.6309 5.79867 56.9499 7.01672L57.0145 7.25897L57.1235 7.48373C57.2743 7.79464 57.6713 8.4528 61.0778 13.7974L62.3335 15.7759C59.2837 14.5282 59.1626 14.5242 58.5313 14.5188C57.3294 14.4663 56.1248 15.1097 55.3994 16.2456L55.3859 16.2672C55.0118 16.8701 54.7803 17.6898 54.6362 18.5485C53.6537 17.2241 52.1746 16.1622 49.9323 15.7221C48.3428 15.4031 46.8515 15.5955 45.4463 16.1635C44.1597 15.3425 42.3911 15.247 40.912 16.0909C40.5033 16.3208 40.1416 16.6258 39.846 16.9899V15.1757L39.7047 14.0975L39.6617 13.9038C39.3642 12.7342 38.4813 11.7476 37.2996 11.2631L37.2888 11.2577C35.9914 10.7341 34.5364 10.8593 33.3022 11.5982C31.9873 12.3748 31.313 13.6642 31.313 15.4273V19.1272C30.851 18.4028 30.2646 17.7658 29.5807 17.2457C27.7342 15.8459 25.2577 15.3735 22.4232 15.8822C20.7798 16.1676 19.4057 16.885 18.3168 17.9375L18.2643 17.8284C17.7112 16.8378 16.8134 16.1568 15.664 15.8553C13.7448 15.3291 11.3087 15.9818 10.3033 19.4139L9.917 20.7262C9.47689 19.9186 8.33557 17.7127 8.28846 17.6467C7.26018 16.0882 5.20091 15.4125 3.35971 16.1447C1.58041 16.815 0.550781 18.3802 0.550781 20.2201C0.550781 20.8002 0.651717 21.4045 0.863026 22.0182L0.915518 22.1676L5.62892 31.7681C3.92903 32.2162 2.71773 33.4841 2.52122 35.223C2.44207 35.8554 2.51619 36.4976 2.73731 37.0954C2.95844 37.6932 3.32009 38.2291 3.79176 38.6578C5.07038 39.8381 7.05694 40.2285 9.38941 39.7507C11.9238 39.2527 13.3814 37.725 14.4029 34.4854L15.9575 29.6011C16.4635 31.6577 17.3841 33.0009 18.2576 33.8623C19.5133 35.1046 21.8135 36.4787 25.6211 35.9646C28.4502 35.5689 30.4085 34.3024 31.4664 32.8138L31.535 33.1732C31.8365 34.2351 32.6562 35.1786 33.7571 35.6806C34.3305 35.9437 34.9547 36.0779 35.5856 36.0738C36.2164 36.0696 36.8387 35.9271 37.4086 35.6564C38.0183 35.3912 38.5351 34.9726 38.9375 34.4491V35.9888C38.9375 38.5339 40.41 39.616 41.2875 40.036C41.8611 40.3226 42.4904 40.4804 43.1314 40.4983C43.7724 40.5162 44.4095 40.3938 44.9982 40.1396C46.1261 39.651 46.9632 38.721 47.2916 37.5918L47.3428 37.4182L47.4962 36.3684V35.9175C49.0265 36.0736 50.6241 35.8246 52.0306 35.0951C52.6524 34.7721 53.1961 34.3832 53.682 33.9363H54.7157C55.2783 34.2324 55.9176 34.4168 56.6053 34.4168C57.2958 34.4168 57.9337 34.2324 58.495 33.9363H61.4923C63.4776 35.0534 66.3793 35.9 67.9325 35.6335C69.2703 35.3966 70.3242 34.5352 70.7697 33.328L70.7926 33.2674C70.981 32.7182 71.0119 32.616 71.0254 29.5136C72.7266 32.262 72.8155 32.3347 73.2933 32.7115C74.3202 33.5123 75.6702 33.6887 76.9165 33.1866C78.9178 32.3831 81.9758 28.4961 82.2826 26.3628C82.3082 26.1771 82.323 25.9887 82.323 25.8043C82.323 24.6872 81.8412 23.6522 80.9784 22.9631ZM49.9215 15.7194C49.9256 15.7221 49.9282 15.7221 49.9323 15.7221C49.935 15.7247 49.9377 15.7248 49.9417 15.7248L49.9215 15.7194ZM76.9192 33.1866H76.9165C76.9124 33.1866 76.9111 33.1907 76.907 33.192L76.9192 33.1866Z" fill="white"/>
<path d="M49.9219 15.7188L49.9326 15.7215C49.9367 15.7241 49.938 15.7242 49.9434 15.7242L49.9219 15.7188ZM76.9209 33.186H76.9168C76.9141 33.186 76.9128 33.1901 76.9087 33.1914L76.9209 33.186Z" stroke="white" stroke-width="5.95229" stroke-linecap="round" stroke-linejoin="round"/>
</g>
<path d="M57.1729 18.6532C56.6871 19.4311 56.4838 21.8753 56.6519 23.4996C56.7098 24.0351 56.8054 24.4821 56.9497 24.7474C57.1434 25.1174 57.4688 25.3381 57.8404 25.3504C58.0759 25.3624 58.2256 25.3234 62.7045 23.8791C62.7045 23.8791 64.6952 23.2466 64.7059 23.2425C65.1985 23.1146 65.5351 22.6597 65.5674 22.077C65.5996 21.478 65.2887 20.9518 64.7827 20.7608L63.3775 20.1873C58.5619 18.201 58.3477 18.1256 58.1029 18.1229C57.7327 18.1054 57.4029 18.2953 57.1729 18.6532ZM67.9389 33.4474C68.0182 33.2211 68.0264 33.0665 68.0384 28.3611C68.0384 28.3611 68.0504 26.2818 68.0548 26.2589C68.0843 25.7529 67.7559 25.287 67.2146 25.0786C66.6589 24.863 66.06 24.995 65.722 25.4149C65.722 25.4149 64.7422 26.5777 64.7384 26.5791C61.3668 30.5427 61.2253 30.7233 61.1447 30.9602C61.0928 31.0974 61.0739 31.2449 61.0895 31.3908C61.1111 31.5993 61.2037 31.8108 61.3641 31.999C62.1447 32.9318 65.8958 34.3113 67.0909 34.1069C67.5067 34.0315 67.8111 33.7946 67.9389 33.4474ZM75.5433 31.8091C76.6766 31.3583 79.1449 28.2198 79.317 27.0141C79.3763 26.5925 79.246 26.2318 78.955 25.9991C78.7681 25.8564 78.6186 25.8012 74.1463 24.3316C74.1463 24.3316 72.1799 23.6827 72.1583 23.672C71.6804 23.4862 71.1392 23.6573 70.7747 24.1081C70.3949 24.5698 70.3359 25.1767 70.6414 25.6381L71.4315 26.9236C74.0897 31.2414 74.2903 31.5455 74.4812 31.6963C74.7774 31.9263 75.1556 31.9679 75.5433 31.8091ZM73.2351 20.6975C78.3225 19.4674 78.5176 19.4027 78.7195 19.271C79.0277 19.0609 79.1798 18.7163 79.1542 18.2898C79.1542 18.2748 79.1555 18.2628 79.1542 18.248C79.0225 17.0002 76.8353 13.75 75.7572 13.2224C75.3736 13.0407 74.9913 13.053 74.6763 13.2628C74.4799 13.3945 74.3332 13.583 71.6119 17.3111C71.6119 17.3111 70.3802 18.9882 70.3654 19.0029C70.0411 19.3961 70.037 19.9628 70.3518 20.4483C70.6791 20.9505 71.2362 21.1955 71.7452 21.0543C71.7452 21.0543 71.7222 21.0893 71.7179 21.0972C71.9671 21.0015 72.4192 20.8914 73.2351 20.6975ZM68.1258 16.4969C68.037 14.4806 67.4327 5.50493 67.3613 5.09045C67.2575 4.71067 66.963 4.44292 66.5389 4.33663C65.2431 4.01368 60.2778 5.40657 59.3587 6.35574C59.0652 6.6623 58.9548 7.04317 59.0423 7.37978C59.1863 7.67595 65.3357 17.3516 65.3357 17.3516C66.2455 18.8267 66.9873 18.5966 67.2294 18.521C67.4717 18.4458 68.2094 18.2158 68.1258 16.4969Z" fill="#E9E9E9"/>
<path d="M57.5791 17.6364C57.0944 18.4132 56.8898 20.8585 57.0581 22.4818C57.1174 23.0173 57.2144 23.4643 57.3556 23.7309C57.5496 24.0998 57.875 24.3189 58.2463 24.3326C58.4848 24.3446 58.6329 24.3041 63.1121 22.864C63.1121 22.864 65.1026 22.2287 65.1108 22.2246C65.6075 22.0981 65.9413 21.6419 65.9733 21.0591C66.0058 20.4615 65.6974 19.934 65.1889 19.743C65.1889 19.743 63.7851 19.1708 63.7823 19.1708C58.9693 17.1856 58.7526 17.1077 58.5103 17.105C58.1387 17.09 57.8092 17.2771 57.5791 17.6364ZM68.3463 32.4281C68.4244 32.2019 68.4337 32.0473 68.4473 27.3418C68.4473 27.3418 68.458 25.2626 68.4594 25.2424C68.4916 24.7323 68.1618 24.2678 67.6222 24.0607C67.0662 23.8465 66.4673 23.9787 66.131 24.397C66.131 24.397 65.1485 25.5626 65.1457 25.5626C61.7742 29.5235 61.6329 29.7066 61.5507 29.941C61.5 30.0789 61.4816 30.2266 61.4968 30.3727C61.5171 30.5831 61.6127 30.7902 61.7701 30.9839C62.552 31.9128 66.3017 33.2921 67.4995 33.0877C67.9157 33.0123 68.2181 32.7781 68.3463 32.4281ZM75.9533 30.7902C77.0839 30.3393 79.5497 27.2019 79.7232 25.9946C79.7839 25.5746 79.6522 25.2126 79.3626 24.9812C79.1727 24.8386 79.0287 24.7834 74.5522 23.3137C74.5522 23.3137 72.5886 22.6648 72.5632 22.6525C72.0878 22.4684 71.5454 22.6394 71.1807 23.0889C70.8012 23.5506 70.7446 24.1602 71.0476 24.6205L71.8375 25.9074C74.4943 30.2221 74.6976 30.5276 74.8888 30.6771C75.1847 30.9098 75.5618 30.9475 75.9533 30.7902ZM73.6397 19.6809C78.7271 18.4482 78.9238 18.3834 79.1243 18.2517C79.4325 18.0443 79.5874 17.6971 79.5604 17.2744C79.5604 17.261 79.5631 17.2463 79.5604 17.2315C79.4298 15.9823 77.2413 12.7335 76.1634 12.2059C75.7809 12.0228 75.3989 12.0348 75.0815 12.2474C74.8847 12.3753 74.7407 12.5692 72.0164 16.2946C72.0164 16.2946 70.7864 17.9703 70.7716 17.9864C70.4473 18.381 70.4419 18.9463 70.7596 19.4307C71.088 19.9326 71.6424 20.1777 72.1511 20.0364C72.1511 20.0364 72.1309 20.0727 72.1257 20.0793C72.376 19.985 72.8241 19.8749 73.6397 19.6809ZM68.5334 15.4804C68.446 13.464 67.8389 4.48706 67.7676 4.07121C67.6654 3.69417 67.3706 3.42504 66.9479 3.31876C65.649 2.99718 60.6854 4.38733 59.766 5.33623C59.4701 5.64443 59.3611 6.02393 59.4499 6.36054C59.5952 6.65808 65.7446 16.3337 65.7446 16.3337C66.6531 17.8075 67.3949 17.5788 67.6383 17.502C67.8793 17.428 68.6167 17.1993 68.5334 15.4804Z" fill="#BF2519"/>
<path d="M5.54213 36.7597C6.18283 37.3531 7.39676 37.5214 8.87189 37.2214C10.2544 36.9482 11.1115 36.3305 11.9366 33.7072L16.0456 20.7969C16.2582 20.1117 16.2423 19.5169 15.9986 19.0756C15.8005 18.7202 15.471 18.4792 15.0052 18.3554C14.2729 18.1549 13.3593 18.1751 12.7831 20.1429L10.6271 27.4663C10.6271 27.4663 6.23529 19.1699 6.23256 19.1685C5.95524 18.6139 5.1424 18.2172 4.31454 18.5456C3.23531 18.956 2.87575 19.9265 3.30635 21.1767C3.30635 21.1767 8.64839 32.0477 8.66069 32.0772C8.66069 32.0772 8.80604 32.4649 8.80604 32.528C8.80604 32.528 8.8544 32.8231 8.8544 32.8338C8.84347 33.2523 8.70358 33.6048 8.45331 33.8403C8.20714 34.072 7.86506 34.193 7.46534 34.1769C7.46534 34.1769 6.63228 34.1578 6.56917 34.1578C5.71316 34.263 5.17464 34.7542 5.08831 35.5132C5.0282 36.002 5.18557 36.4313 5.54213 36.7597ZM26.5909 24.5185H20.8707C20.7158 24.4057 20.6407 24.2158 20.7562 23.645C20.8289 23.345 20.9071 23.0759 21.136 22.6988C21.2098 22.586 21.2866 22.4702 21.3606 22.3546C21.7792 21.8254 22.3458 21.4863 22.9906 21.3355C25.0016 20.8442 26.4037 21.8658 26.6313 23.6087C26.7403 24.3693 26.6688 24.5185 26.5909 24.5185ZM30.1064 23.5226C29.922 21.6573 29.2021 20.2011 28.0218 19.3087C26.7644 18.3543 24.9852 18.0502 22.8789 18.427C20.2382 18.8847 18.6527 20.7715 18.2893 23.8915C17.8423 27.6209 18.456 30.4313 20.0699 32.0206C21.2866 33.2228 23.0863 33.7004 25.2748 33.4042C28.3958 32.9654 29.7993 31.2523 29.7993 30.1687C29.7993 29.372 29.3177 28.7447 28.6097 28.6494C28.2045 28.5685 27.8627 28.6494 27.1062 29.3261C26.016 30.2764 24.7524 30.6586 23.6324 30.3748C22.7792 30.1581 22.1131 29.5698 21.8114 28.7636C21.8114 28.7636 21.677 28.2308 21.6849 28.2898C21.5934 27.8095 21.5519 27.333 21.8478 27.139L21.927 27.0852H28.7832C29.416 27.0852 29.7362 27.0032 29.9207 26.8037C30.2977 26.3854 30.2676 25.1904 30.1064 23.5226ZM36.3217 13.6571C35.7794 13.4363 35.1671 13.4956 34.6299 13.8158C34.1132 14.1216 33.8977 14.5872 33.8977 15.4284V31.7758C33.8977 31.7758 33.9878 32.36 33.9974 32.3854C34.1132 32.7933 34.4146 33.1406 34.8332 33.3302C35.2977 33.5458 35.8332 33.5417 36.3124 33.3168C36.9086 33.0583 37.2599 32.4622 37.2599 31.7234V15.3448C37.2599 15.3448 37.1561 14.5535 37.1561 14.5388C37.0605 14.159 36.7471 13.8309 36.3217 13.6571ZM49.2588 30.2616C46.9949 30.2616 46.6342 28.2521 46.5629 26.7354C46.5588 26.7313 46.5331 25.8469 46.5331 25.8469C46.5331 25.8469 46.5588 25.1904 46.5588 25.1647C46.7055 22.5401 47.2479 21.5051 48.6328 21.2172C49.5629 21.0019 50.2735 21.1068 50.8066 21.536C51.6071 22.1808 51.9599 23.5456 51.9276 25.8229C51.9047 28.489 51.4405 30.2616 49.2588 30.2616ZM49.4268 18.259C47.9102 17.9492 46.6126 18.209 45.3648 19.0541C45.3648 19.0541 45.2249 19.1672 45.1711 19.1997L45.0594 19.2562L44.7178 19.4095L44.6206 19.0259L44.5386 18.8874L44.5102 18.8013L44.5009 18.7757C44.5009 18.7757 44.4176 18.6639 44.4053 18.6464C44.0473 18.089 43.0741 17.8336 42.1968 18.3341C41.7673 18.5778 41.5211 18.921 41.5211 19.9453V35.9897C41.5211 36.8687 41.7971 37.4151 42.3998 37.7031C42.9085 37.9589 43.4807 37.9791 43.9719 37.7679C44.3891 37.5848 44.696 37.2616 44.8104 36.8687L44.9115 36.181V33.4042L44.8818 32.9575L44.8938 32.8256L44.9113 32.7624L45.0768 32.2335L45.579 32.5671C45.579 32.5671 45.7055 32.6507 45.7593 32.7073L45.9102 32.8067C45.9113 32.8081 46.085 32.9092 46.085 32.9092C46.0878 32.9092 46.2465 32.987 46.2465 32.987C47.5924 33.6223 49.3932 33.5482 50.8429 32.8012C52.668 31.8485 53.5697 30.1581 53.7781 27.3196C54.2142 21.6464 52.9088 18.936 49.4268 18.259ZM56.4606 31.5174H56.6478C56.7997 31.5174 56.9426 31.5092 56.9426 31.3384C56.9426 31.1849 56.812 31.169 56.6948 31.169H56.4606V31.5174ZM56.3071 31.0316H56.7082C56.9707 31.0316 57.0934 31.1272 57.0934 31.345C57.0934 31.5417 56.968 31.6237 56.8038 31.6411L57.1202 32.1245H56.9546L56.6557 31.6545H56.4606V32.1245H56.3071V31.0316ZM56.6612 32.3775C57.1038 32.3775 57.4606 32.0288 57.4606 31.5671C57.4606 31.1135 57.1041 30.7638 56.6612 30.7638C56.2169 30.7638 55.8604 31.1135 55.8604 31.5767C55.8594 31.6821 55.8795 31.7866 55.9194 31.8842C55.9593 31.9818 56.0183 32.0704 56.0928 32.1449C56.1674 32.2195 56.256 32.2784 56.3536 32.3183C56.4512 32.3582 56.5558 32.3782 56.6612 32.3772V32.3775ZM56.6612 30.6278C57.1781 30.6278 57.6128 31.0343 57.6128 31.5671C57.6128 32.1094 57.1781 32.5146 56.6612 32.5146C56.1429 32.5146 55.7096 32.1094 55.7096 31.5767C55.7096 31.0343 56.1429 30.6278 56.6612 30.6278Z" fill="#231F20"/>
</g>
<defs>
<clipPath id="clip0_249_229">
<rect width="81.9672" height="40" fill="white" transform="translate(0.453125 0.601562)"/>
</clipPath>
</defs>
</svg>
