<svg width="129" height="41" viewBox="0 0 129 41" fill="none" xmlns="http://www.w3.org/2000/svg">
<g clip-path="url(#clip0_249_222)">
<path d="M67.9283 10.6522C67.9283 12.0937 66.7667 13.2545 65.3251 13.2545C63.8836 13.2545 62.7228 12.0937 62.7228 10.6522C62.7228 9.2106 63.844 8.04981 65.3251 8.04981C66.8075 8.08981 67.9283 9.25099 67.9283 10.6522ZM57.1973 15.8977V16.5385C57.1973 16.5385 55.9565 14.9361 53.3138 14.9361C48.9499 14.9361 45.5459 18.2596 45.5459 22.8639C45.5459 27.4286 48.9099 30.7918 53.3138 30.7918C55.9965 30.7918 57.1973 29.1502 57.1973 29.1502V29.8306C57.1973 30.151 57.4381 30.3906 57.7581 30.3906H61.0008V15.3353H57.7581C57.4381 15.3365 57.1973 15.6173 57.1973 15.8977ZM57.1973 25.5467C56.5973 26.4279 55.3957 27.1886 53.9546 27.1886C51.3922 27.1886 49.4298 25.5871 49.4298 22.8639C49.4298 20.1412 51.3922 18.5396 53.9546 18.5396C55.3561 18.5396 56.6373 19.3404 57.1973 20.1812V25.5467ZM63.4036 15.3365H67.2471V30.3918H63.4036V15.3365ZM120.82 14.9357C118.178 14.9357 116.936 16.538 116.936 16.538V8.08982H113.093V30.3918H116.336C116.657 30.3918 116.896 30.1114 116.896 29.831V29.1506C116.896 29.1506 118.138 30.7922 120.78 30.7922C125.144 30.7922 128.547 27.4298 128.547 22.8651C128.547 18.3004 125.144 14.9357 120.82 14.9357ZM120.18 27.1482C118.698 27.1482 117.537 26.3882 116.936 25.5067V20.1412C117.537 19.3404 118.818 18.4996 120.18 18.4996C122.742 18.4996 124.704 20.1012 124.704 22.8239C124.704 25.5467 122.742 27.1482 120.18 27.1482ZM111.091 21.4632V30.4318H107.247V21.9031C107.247 19.4212 106.446 18.4196 104.285 18.4196C103.124 18.4196 101.923 19.0204 101.161 19.9016V30.3922H97.3181V15.3369H100.36C100.68 15.3369 100.921 15.6173 100.921 15.8977V16.5385C102.042 15.3769 103.523 14.9361 105.004 14.9361C106.686 14.9361 108.088 15.4173 109.209 16.3781C110.57 17.4992 111.091 18.9404 111.091 21.4632ZM87.9875 14.9357C85.3455 14.9357 84.104 16.538 84.104 16.538V8.08982H80.2604V30.3918H83.5032C83.8236 30.3918 84.0639 30.1114 84.0639 29.831V29.1506C84.0639 29.1506 85.3055 30.7922 87.9475 30.7922C92.3122 30.7922 95.7153 27.4298 95.7153 22.8651C95.7553 18.3 92.3522 14.9357 87.9875 14.9357ZM87.3467 27.1482C85.8655 27.1482 84.7048 26.3882 84.104 25.5067V20.1412C84.7048 19.3404 85.9859 18.4996 87.3467 18.4996C89.9098 18.4996 91.8714 20.1012 91.8714 22.8239C91.8714 25.5467 89.9098 27.1482 87.3467 27.1482ZM76.9369 14.9357C78.0977 14.9357 78.6985 15.1365 78.6985 15.1365V18.6996C78.6985 18.6996 75.4953 17.6184 73.4938 19.9012V30.4314H69.6494V15.3365H72.893C73.2134 15.3365 73.453 15.6169 73.453 15.8973V16.538C74.1745 15.6969 75.7361 14.9357 76.9369 14.9357ZM37.0181 29.0302C36.8181 28.5498 36.6177 28.0294 36.4177 27.5886C36.0969 26.8682 35.7765 26.1871 35.4969 25.5467L35.4569 25.5067C32.6938 19.5004 29.7314 13.4149 26.6079 7.40943L26.4879 7.16863C26.1594 6.54563 25.8392 5.91826 25.5275 5.28667C25.1267 4.56549 24.7267 3.8055 24.0859 3.08431C22.8048 1.48275 20.9628 0.601562 19.0012 0.601562C16.9989 0.601562 15.1973 1.48275 13.8766 3.00392C13.2758 3.7243 12.835 4.48509 12.435 5.20628C12.1225 5.83747 11.8023 6.46483 11.4746 7.08824L11.3542 7.32903C8.27107 13.3345 5.26833 19.4204 2.50558 25.4263L2.46519 25.5059C2.1852 26.1475 1.8644 26.8278 1.54401 27.5478C1.34401 27.9886 1.14401 28.469 0.944017 28.9894C0.423228 30.4706 0.262823 31.8721 0.463619 33.3141C0.90401 36.3173 2.90557 38.8388 5.66872 39.9608C6.70989 40.4016 7.79107 40.6016 8.91185 40.6016C9.23224 40.6016 9.63225 40.5616 9.95304 40.5212C11.2746 40.3612 12.6358 39.9212 13.9574 39.1604C15.5989 38.2392 17.1605 36.9184 18.9221 34.9965C20.6836 36.9184 22.2852 38.2392 23.8868 39.1604C25.2087 39.9212 26.5695 40.3612 27.8907 40.5212C28.2111 40.562 28.6119 40.6016 28.9322 40.6016C30.0534 40.6016 31.1742 40.4016 32.175 39.9608C34.9781 38.8388 36.9397 36.2773 37.3805 33.3141C37.6985 31.9129 37.5385 30.5122 37.0181 29.0302ZM18.9609 31.1122C16.7985 28.3894 15.3969 25.8271 14.9169 23.6655C14.7169 22.7443 14.6765 21.9435 14.7969 21.2228C14.8765 20.582 15.1173 20.0212 15.4377 19.5408C16.1985 18.4604 17.4797 17.7792 18.9613 17.7792C20.4432 17.7792 21.7644 18.42 22.4852 19.5408C22.8056 20.0212 23.0456 20.5824 23.1264 21.2228C23.246 21.9439 23.206 22.7843 23.006 23.6655C22.524 25.7871 21.1224 28.3498 18.9609 31.1122ZM34.9357 32.9941C34.6557 35.0761 33.2542 36.8784 31.2926 37.6792C30.3318 38.0792 29.2902 38.1996 28.2499 38.0792C27.2491 37.9588 26.2475 37.6384 25.2071 37.0384C23.7656 36.2368 22.3244 34.9965 20.6424 33.1541C23.2848 29.9114 24.8863 26.9478 25.4871 24.3059C25.7675 23.0643 25.8079 21.9435 25.6871 20.902C25.5275 19.9012 25.1667 18.98 24.6063 18.1792C23.3644 16.3768 21.282 15.3365 18.9605 15.3365C16.6389 15.3365 14.5565 16.4176 13.3154 18.1792C12.755 18.98 12.3942 19.9012 12.2342 20.902C12.0742 21.9435 12.1138 23.1043 12.4342 24.3059C13.0346 26.9478 14.6761 29.951 17.2785 33.1941C15.6369 35.0361 14.1553 36.2777 12.7138 37.0784C11.6726 37.6792 10.6722 37.9996 9.67144 38.1192C8.59066 38.2396 7.54908 38.0792 6.6283 37.7192C4.66674 36.9184 3.26517 35.1161 2.98518 33.0341C2.86518 32.0333 2.94478 31.0326 3.34557 29.9114C3.46517 29.5106 3.66596 29.1106 3.86596 28.6302C4.14635 27.9894 4.46594 27.3082 4.78674 26.6278L4.82714 26.5482C7.58949 20.582 10.5522 14.4961 13.6354 8.5706L13.7554 8.32981C14.0762 7.72983 14.3966 7.08904 14.7165 6.48825C15.0369 5.84746 15.3969 5.24667 15.8377 4.72588C16.6785 3.7659 17.7993 3.24471 19.0408 3.24471C20.2824 3.24471 21.4032 3.7659 22.244 4.72588C22.6848 5.24787 23.0448 5.84866 23.3652 6.48825C23.686 7.08904 24.0064 7.72983 24.3259 8.32981L24.4463 8.5706C27.4825 14.5207 30.4059 20.5277 33.215 26.5882V26.6283C33.5358 27.2698 33.8158 27.9898 34.1362 28.6314C34.3361 29.111 34.5365 29.511 34.6565 29.9118C34.9761 30.9518 35.0961 31.9533 34.9357 32.9941Z" fill="#FF5A5F"/>
</g>
<defs>
<clipPath id="clip0_249_222">
<rect width="128.205" height="40" fill="white" transform="translate(0.361328 0.601562)"/>
</clipPath>
</defs>
</svg>
