<svg width="60" height="61" viewBox="0 0 60 61" fill="none" xmlns="http://www.w3.org/2000/svg">
<path d="M19.2859 56.065C28.7537 56.065 36.4288 48.3899 36.4288 38.9222C36.4288 29.4544 28.7537 21.7793 19.2859 21.7793C9.81818 21.7793 2.14307 29.4544 2.14307 38.9222C2.14307 48.3899 9.81818 56.065 19.2859 56.065Z" stroke="url(#paint0_linear_222_163)" stroke-width="2" stroke-linecap="round" stroke-linejoin="round"/>
<path d="M40.7146 56.065C50.1824 56.065 57.8575 48.3899 57.8575 38.9222C57.8575 29.4544 50.1824 21.7793 40.7146 21.7793C31.2469 21.7793 23.5718 29.4544 23.5718 38.9222C23.5718 48.3899 31.2469 56.065 40.7146 56.065Z" stroke="url(#paint1_linear_222_163)" stroke-width="2" stroke-linecap="round" stroke-linejoin="round"/>
<path d="M30.0003 38.9224C39.468 38.9224 47.1431 31.2473 47.1431 21.7796C47.1431 12.3118 39.468 4.63672 30.0003 4.63672C20.5325 4.63672 12.8574 12.3118 12.8574 21.7796C12.8574 31.2473 20.5325 38.9224 30.0003 38.9224Z" stroke="url(#paint2_linear_222_163)" stroke-width="2" stroke-linecap="round" stroke-linejoin="round"/>
<defs>
<linearGradient id="paint0_linear_222_163" x1="2.14307" y1="38.9222" x2="36.4288" y2="38.9222" gradientUnits="userSpaceOnUse">
<stop stop-color="#386BB7"/>
<stop offset="1" stop-color="#E24C4A"/>
</linearGradient>
<linearGradient id="paint1_linear_222_163" x1="23.5718" y1="38.9222" x2="57.8575" y2="38.9222" gradientUnits="userSpaceOnUse">
<stop stop-color="#386BB7"/>
<stop offset="1" stop-color="#E24C4A"/>
</linearGradient>
<linearGradient id="paint2_linear_222_163" x1="12.8574" y1="21.7796" x2="47.1431" y2="21.7796" gradientUnits="userSpaceOnUse">
<stop stop-color="#386BB7"/>
<stop offset="1" stop-color="#E24C4A"/>
</linearGradient>
</defs>
</svg>
