<svg width="26" height="26" viewBox="0 0 26 26" fill="none" xmlns="http://www.w3.org/2000/svg">
<g clip-path="url(#clip0_574_888)">
<path d="M16.1428 23.7139C17.2425 24.4233 18.5529 24.7325 19.8538 24.5894C21.1546 24.4463 22.3665 23.8597 23.2857 22.9282L24.0892 22.1425C24.4415 21.7821 24.6388 21.2982 24.6388 20.7942C24.6388 20.2903 24.4415 19.8064 24.0892 19.446L20.6785 16.071C20.3212 15.7199 19.8402 15.5231 19.3392 15.5231C18.8382 15.5231 18.3573 15.7199 18 16.071V16.071C17.6396 16.4233 17.1557 16.6206 16.6517 16.6206C16.1478 16.6206 15.6639 16.4233 15.3035 16.071L9.94638 10.7139C9.76767 10.5378 9.62576 10.3279 9.52889 10.0964C9.43203 9.86498 9.38215 9.61658 9.38215 9.36568C9.38215 9.11477 9.43203 8.86637 9.52889 8.63491C9.62576 8.40346 9.76767 8.19358 9.94638 8.01746V8.01746C10.2976 7.66013 10.4943 7.17918 10.4943 6.67818C10.4943 6.17717 10.2976 5.69622 9.94638 5.33889L6.55353 1.94603C6.19318 1.59374 5.70926 1.39648 5.20531 1.39648C4.70137 1.39648 4.21744 1.59374 3.8571 1.94603L3.07138 2.7496C2.13986 3.66879 1.55323 4.88068 1.41014 6.18151C1.26705 7.48234 1.57622 8.79277 2.28567 9.89246C5.98218 15.3402 10.6856 20.0315 16.1428 23.7139V23.7139Z" stroke="white" stroke-width="1.5" stroke-linecap="round" stroke-linejoin="round"/>
</g>
<defs>
<clipPath id="clip0_574_888">
<rect width="25" height="25" fill="white" transform="translate(0.5 0.5)"/>
</clipPath>
</defs>
</svg>
