<svg width="61" height="60" viewBox="0 0 61 60" fill="none" xmlns="http://www.w3.org/2000/svg">
<path d="M13.3764 57.8583C19.2937 57.8583 24.0907 53.0613 24.0907 47.144C24.0907 41.2266 19.2937 36.4297 13.3764 36.4297C7.45906 36.4297 2.66211 41.2266 2.66211 47.144C2.66211 53.0613 7.45906 57.8583 13.3764 57.8583Z" stroke="url(#paint0_linear_574_687)" stroke-width="2" stroke-linecap="round" stroke-linejoin="round"/>
<path d="M24.0903 12.8576V6.429C24.0903 5.29236 23.6387 4.20227 22.835 3.39854C22.0313 2.59482 20.9412 2.14329 19.8045 2.14329H14.7474C13.7387 2.12494 12.7559 2.46303 11.972 3.09802C11.188 3.73301 10.6532 4.62421 10.4617 5.61472L2.87598 45.0004" stroke="url(#paint1_linear_574_687)" stroke-width="2" stroke-linecap="round" stroke-linejoin="round"/>
<path d="M19.8047 23.5723H41.2333" stroke="url(#paint2_linear_574_687)" stroke-width="2" stroke-linecap="round" stroke-linejoin="round"/>
<path d="M24.0908 34.2871V47.1443" stroke="url(#paint3_linear_574_687)" stroke-width="2" stroke-linecap="round" stroke-linejoin="round"/>
<path d="M47.6625 57.8583C53.5799 57.8583 58.3768 53.0613 58.3768 47.144C58.3768 41.2266 53.5799 36.4297 47.6625 36.4297C41.7452 36.4297 36.9482 41.2266 36.9482 47.144C36.9482 53.0613 41.7452 57.8583 47.6625 57.8583Z" stroke="url(#paint4_linear_574_687)" stroke-width="2" stroke-linecap="round" stroke-linejoin="round"/>
<path d="M36.9482 12.8576V6.429C36.9482 5.29236 37.3998 4.20227 38.2035 3.39854C39.0072 2.59482 40.0973 2.14329 41.234 2.14329H46.2911C47.2998 2.12494 48.2826 2.46303 49.0666 3.09802C49.8505 3.73301 50.3853 4.62421 50.5768 5.61472L58.2482 45.0004" stroke="url(#paint5_linear_574_687)" stroke-width="2" stroke-linecap="round" stroke-linejoin="round"/>
<path d="M36.9482 34.2871V47.1443" stroke="url(#paint6_linear_574_687)" stroke-width="2" stroke-linecap="round" stroke-linejoin="round"/>
<defs>
<linearGradient id="paint0_linear_574_687" x1="2.66211" y1="47.144" x2="24.0907" y2="47.144" gradientUnits="userSpaceOnUse">
<stop stop-color="#386BB7"/>
<stop offset="1" stop-color="#E24C4A"/>
</linearGradient>
<linearGradient id="paint1_linear_574_687" x1="2.87598" y1="23.5715" x2="24.0903" y2="23.5715" gradientUnits="userSpaceOnUse">
<stop stop-color="#386BB7"/>
<stop offset="1" stop-color="#E24C4A"/>
</linearGradient>
<linearGradient id="paint2_linear_574_687" x1="19.8047" y1="24.0723" x2="41.2333" y2="24.0723" gradientUnits="userSpaceOnUse">
<stop stop-color="#386BB7"/>
<stop offset="1" stop-color="#E24C4A"/>
</linearGradient>
<linearGradient id="paint3_linear_574_687" x1="24.0908" y1="40.7157" x2="25.0908" y2="40.7157" gradientUnits="userSpaceOnUse">
<stop stop-color="#386BB7"/>
<stop offset="1" stop-color="#E24C4A"/>
</linearGradient>
<linearGradient id="paint4_linear_574_687" x1="36.9482" y1="47.144" x2="58.3768" y2="47.144" gradientUnits="userSpaceOnUse">
<stop stop-color="#386BB7"/>
<stop offset="1" stop-color="#E24C4A"/>
</linearGradient>
<linearGradient id="paint5_linear_574_687" x1="36.9482" y1="23.5715" x2="58.2482" y2="23.5715" gradientUnits="userSpaceOnUse">
<stop stop-color="#386BB7"/>
<stop offset="1" stop-color="#E24C4A"/>
</linearGradient>
<linearGradient id="paint6_linear_574_687" x1="36.9482" y1="40.7157" x2="37.9482" y2="40.7157" gradientUnits="userSpaceOnUse">
<stop stop-color="#386BB7"/>
<stop offset="1" stop-color="#E24C4A"/>
</linearGradient>
</defs>
</svg>
