<svg width="119" height="41" viewBox="0 0 119 41" fill="none" xmlns="http://www.w3.org/2000/svg">
<g clip-path="url(#clip0_249_246)">
<path d="M50.6008 21.1493C50.6008 26.7015 46.2573 30.7928 40.9268 30.7928C35.5964 30.7928 31.2529 26.7015 31.2529 21.1493C31.2529 15.558 35.5964 11.5059 40.9268 11.5059C46.2573 11.5059 50.6008 15.558 50.6008 21.1493ZM46.366 21.1493C46.366 17.6798 43.8486 15.3059 40.9268 15.3059C38.0051 15.3059 35.4877 17.6798 35.4877 21.1493C35.4877 24.5841 38.0051 26.9928 40.9268 26.9928C43.8486 26.9928 46.366 24.5798 46.366 21.1493Z" fill="#EA4335"/>
<path d="M71.4699 21.1493C71.4699 26.7015 67.1264 30.7928 61.796 30.7928C56.4655 30.7928 52.1221 26.7015 52.1221 21.1493C52.1221 15.5624 56.4655 11.5059 61.796 11.5059C67.1264 11.5059 71.4699 15.558 71.4699 21.1493ZM67.2351 21.1493C67.2351 17.6798 64.7177 15.3059 61.796 15.3059C58.8742 15.3059 56.3569 17.6798 56.3569 21.1493C56.3569 24.5841 58.8742 26.9928 61.796 26.9928C64.7177 26.9928 67.2351 24.5798 67.2351 21.1493Z" fill="#FBBC05"/>
<path d="M91.4704 12.0885V29.4015C91.4704 36.5233 87.2704 39.4319 82.3051 39.4319C77.6312 39.4319 74.8182 36.3059 73.7573 33.7493L77.4443 32.2146C78.1008 33.7841 79.7095 35.6363 82.3008 35.6363C85.4791 35.6363 87.4486 33.6754 87.4486 29.9841V28.5972H87.3008C86.353 29.7667 84.5269 30.7885 82.2225 30.7885C77.4008 30.7885 72.9834 26.5885 72.9834 21.1841C72.9834 15.7406 77.4008 11.5059 82.2225 11.5059C84.5225 11.5059 86.3486 12.5276 87.3008 13.6624H87.4486V12.0928H91.4704V12.0885ZM87.7486 21.1841C87.7486 17.7885 85.4834 15.3059 82.6008 15.3059C79.6791 15.3059 77.2312 17.7885 77.2312 21.1841C77.2312 24.545 79.6791 26.9928 82.6008 26.9928C85.4834 26.9928 87.7486 24.545 87.7486 21.1841Z" fill="#4285F4"/>
<path d="M98.1002 1.94141V30.2023H93.9697V1.94141H98.1002Z" fill="#34A853"/>
<path d="M114.196 24.3237L117.483 26.515C116.422 28.0846 113.866 30.7889 109.448 30.7889C103.97 30.7889 99.8789 26.5541 99.8789 21.1454C99.8789 15.4106 104.005 11.502 108.975 11.502C113.979 11.502 116.427 15.4846 117.227 17.6367L117.666 18.7324L104.775 24.0715C105.762 26.0063 107.296 26.9933 109.448 26.9933C111.605 26.9933 113.101 25.9324 114.196 24.3237ZM104.079 20.8541L112.696 17.2759C112.222 16.0715 110.796 15.2324 109.118 15.2324C106.966 15.2324 103.97 17.1324 104.079 20.8541Z" fill="#EA4335"/>
<path d="M15.6176 18.6418V14.5505H29.4046C29.5394 15.2635 29.6089 16.107 29.6089 17.0201C29.6089 20.0896 28.7698 23.8853 26.0654 26.5896C23.435 29.3288 20.0741 30.7896 15.622 30.7896C7.36979 30.7896 0.430664 24.0679 0.430664 15.8157C0.430664 7.56354 7.36979 0.841797 15.622 0.841797C20.1872 0.841797 23.4394 2.6331 25.8828 4.96788L22.9959 7.85484C21.2437 6.21136 18.8698 4.9331 15.6176 4.9331C9.59153 4.9331 4.87849 9.78962 4.87849 15.8157C4.87849 21.8418 9.59153 26.6983 15.6176 26.6983C19.5263 26.6983 21.7524 25.1288 23.1785 23.7027C24.335 22.5461 25.0959 20.894 25.3959 18.6374L15.6176 18.6418Z" fill="#4285F4"/>
</g>
<defs>
<clipPath id="clip0_249_246">
<rect width="118.261" height="40" fill="white" transform="translate(0.274414 0.636719)"/>
</clipPath>
</defs>
</svg>
