<svg width="30" height="30" viewBox="0 0 30 30" fill="none" xmlns="http://www.w3.org/2000/svg">
<g clip-path="url(#clip0_574_3350)">
<path d="M18.771 27.8571C20.0906 28.7084 21.6631 29.0794 23.2241 28.9077C24.7851 28.736 26.2394 28.032 27.3424 26.9142L28.3067 25.9713C28.7295 25.5389 28.9662 24.9582 28.9662 24.3535C28.9662 23.7488 28.7295 23.168 28.3067 22.7356L24.2138 18.6856C23.785 18.2642 23.2079 18.0281 22.6067 18.0281C22.0055 18.0281 21.4283 18.2642 20.9996 18.6856V18.6856C20.5671 19.1084 19.9864 19.3451 19.3817 19.3451C18.777 19.3451 18.1963 19.1084 17.7638 18.6856L11.3353 12.2571C11.1208 12.0457 10.9505 11.7939 10.8343 11.5161C10.718 11.2384 10.6582 10.9403 10.6582 10.6392C10.6582 10.3381 10.718 10.04 10.8343 9.76229C10.9505 9.48454 11.1208 9.23268 11.3353 9.02134V9.02134C11.7567 8.59255 11.9928 8.0154 11.9928 7.4142C11.9928 6.813 11.7567 6.23585 11.3353 5.80706L7.26384 1.73563C6.83143 1.31288 6.25072 1.07617 5.64598 1.07617C5.04125 1.07617 4.46054 1.31288 4.02813 1.73563L3.08527 2.69991C1.96744 3.80293 1.26349 5.25721 1.09178 6.8182C0.920067 8.3792 1.29107 9.95172 2.14241 11.2713C6.57822 17.8086 12.2223 23.4381 18.771 27.8571V27.8571Z" stroke="url(#paint0_linear_574_3350)" stroke-width="1.5" stroke-linecap="round" stroke-linejoin="round"/>
</g>
<defs>
<linearGradient id="paint0_linear_574_3350" x1="1.05078" y1="15.0124" x2="28.9662" y2="15.0124" gradientUnits="userSpaceOnUse">
<stop stop-color="#386BB7"/>
<stop offset="1" stop-color="#E24C4A"/>
</linearGradient>
<clipPath id="clip0_574_3350">
<rect width="30" height="30" fill="white"/>
</clipPath>
</defs>
</svg>
