<svg width="25" height="25" viewBox="0 0 25 25" fill="none" xmlns="http://www.w3.org/2000/svg">
<path d="M20.5353 8.92829C20.5353 13.3747 12.4996 24.1069 12.4996 24.1069C12.4996 24.1069 4.46387 13.3747 4.46387 8.92829C4.46387 6.79709 5.31048 4.75317 6.81747 3.24618C8.32446 1.7392 10.3684 0.892578 12.4996 0.892578C14.6308 0.892578 16.6747 1.7392 18.1817 3.24618C19.6887 4.75317 20.5353 6.79709 20.5353 8.92829V8.92829Z" stroke="white" stroke-width="1.5" stroke-linecap="round" stroke-linejoin="round"/>
<path d="M12.4999 11.6071C13.9792 11.6071 15.1784 10.4079 15.1784 8.92857C15.1784 7.44924 13.9792 6.25 12.4999 6.25C11.0205 6.25 9.82129 7.44924 9.82129 8.92857C9.82129 10.4079 11.0205 11.6071 12.4999 11.6071Z" stroke="white" stroke-width="1.5" stroke-linecap="round" stroke-linejoin="round"/>
</svg>
