<svg width="40" height="40" viewBox="0 0 40 40" fill="none" xmlns="http://www.w3.org/2000/svg">
<g clip-path="url(#clip0_413_203)">
<path d="M9.28585 17.142C13.6252 17.142 17.143 13.6243 17.143 9.28488C17.143 4.9455 13.6252 1.42773 9.28585 1.42773C4.94647 1.42773 1.42871 4.9455 1.42871 9.28488C1.42871 13.6243 4.94647 17.142 9.28585 17.142Z" stroke="white" stroke-width="1.5" stroke-linecap="round" stroke-linejoin="round"/>
<path d="M30.7146 17.142C35.0539 17.142 38.5717 13.6243 38.5717 9.28488C38.5717 4.9455 35.0539 1.42773 30.7146 1.42773C26.3752 1.42773 22.8574 4.9455 22.8574 9.28488C22.8574 13.6243 26.3752 17.142 30.7146 17.142Z" stroke="white" stroke-width="1.5" stroke-linecap="round" stroke-linejoin="round"/>
<path d="M9.28585 38.5698C13.6252 38.5698 17.143 35.052 17.143 30.7126C17.143 26.3732 13.6252 22.8555 9.28585 22.8555C4.94647 22.8555 1.42871 26.3732 1.42871 30.7126C1.42871 35.052 4.94647 38.5698 9.28585 38.5698Z" stroke="white" stroke-width="1.5" stroke-linecap="round" stroke-linejoin="round"/>
<path d="M30.7146 38.5698C35.0539 38.5698 38.5717 35.052 38.5717 30.7126C38.5717 26.3732 35.0539 22.8555 30.7146 22.8555C26.3752 22.8555 22.8574 26.3732 22.8574 30.7126C22.8574 35.052 26.3752 38.5698 30.7146 38.5698Z" stroke="white" stroke-width="1.5" stroke-linecap="round" stroke-linejoin="round"/>
</g>
<defs>
<clipPath id="clip0_413_203">
<rect width="40" height="40" fill="white"/>
</clipPath>
</defs>
</svg>
