<svg width="163" height="41" viewBox="0 0 163 41" fill="none" xmlns="http://www.w3.org/2000/svg">
<path d="M42.8436 14.6875H59.3269V17.7561H52.8368V35.0541H49.2794V17.7561H42.8164L42.8436 14.6875ZM58.6209 20.3087H61.6623V23.16H61.7166C61.8252 22.7527 62.0153 22.3725 62.2869 21.9923C62.5584 21.6121 62.8843 21.2591 63.2916 20.9604C63.6718 20.6345 64.1063 20.3901 64.5951 20.2001C65.0567 20.01 65.5455 19.9013 66.0343 19.9013C66.4145 19.9013 66.6861 19.9285 66.8218 19.9285C66.9576 19.9557 67.1205 19.9828 67.2563 19.9828V23.1057C67.0391 23.0514 66.7947 23.0242 66.5503 22.9971C66.3059 22.9699 66.0886 22.9428 65.8442 22.9428C65.3011 22.9428 64.7852 23.0514 64.2964 23.2686C63.8076 23.4859 63.4002 23.8117 63.0201 24.2191C62.667 24.6535 62.3683 25.1695 62.1511 25.7941C61.9338 26.4187 61.8252 27.1519 61.8252 27.9665V34.9726H58.5666L58.6209 20.3087ZM82.1918 35.0541H78.9875V32.9903H78.9332C78.5258 33.7506 77.9284 34.3209 77.1409 34.7825C76.3534 35.2442 75.5387 35.4614 74.7241 35.4614C72.796 35.4614 71.3839 34.9998 70.515 34.0222C69.646 33.0717 69.2115 31.6053 69.2115 29.6773V20.3087H72.4702V29.3514C72.4702 30.6549 72.7146 31.5782 73.2305 32.0941C73.7193 32.6372 74.4254 32.9088 75.3215 32.9088C76.0004 32.9088 76.5706 32.8002 77.0323 32.5829C77.4939 32.3657 77.8741 32.0941 78.1457 31.7411C78.4444 31.3881 78.6345 30.9536 78.7702 30.4648C78.906 29.976 78.9603 29.4329 78.9603 28.8626V20.3087H82.219V35.0541H82.1918ZM87.7315 30.329C87.8402 31.2795 88.1932 31.9312 88.8177 32.3385C89.4423 32.7187 90.2027 32.9088 91.0716 32.9088C91.3704 32.9088 91.7234 32.8817 92.1036 32.8273C92.4837 32.773 92.8639 32.6916 93.1898 32.5558C93.5428 32.42 93.8144 32.2299 94.0316 31.9584C94.2488 31.6868 94.3575 31.3609 94.3303 30.9536C94.3031 30.5463 94.1674 30.1933 93.8687 29.9217C93.57 29.6501 93.2169 29.4601 92.7824 29.27C92.348 29.107 91.832 28.9713 91.2617 28.8626C90.6915 28.754 90.1212 28.6182 89.5238 28.4825C88.9264 28.3467 88.3289 28.1838 87.7587 27.9937C87.1884 27.8036 86.6996 27.5592 86.238 27.2062C85.8035 26.8803 85.4233 26.473 85.1789 25.957C84.9074 25.4411 84.7716 24.8436 84.7716 24.0833C84.7716 23.2686 84.9617 22.6169 85.369 22.0738C85.7492 21.5307 86.2651 21.0962 86.8626 20.7703C87.46 20.4445 88.1389 20.2001 88.8721 20.0643C89.6053 19.9285 90.3113 19.8742 90.963 19.8742C91.7234 19.8742 92.4566 19.9557 93.1355 20.1186C93.8144 20.2815 94.4661 20.5259 95.0092 20.9061C95.5794 21.2591 96.0411 21.7479 96.3941 22.3182C96.7743 22.8884 96.9915 23.5945 97.1002 24.4091H93.7057C93.5428 23.6216 93.1898 23.1057 92.6467 22.8341C92.0764 22.5626 91.4518 22.4268 90.7186 22.4268C90.5014 22.4268 90.2027 22.454 89.904 22.4811C89.5781 22.5354 89.3065 22.5897 89.0078 22.6984C88.7363 22.807 88.4919 22.9699 88.3018 23.16C88.1117 23.3501 88.0031 23.6216 88.0031 23.9475C88.0031 24.3548 88.1389 24.6535 88.4104 24.8979C88.682 25.1423 89.035 25.3324 89.4966 25.5225C89.9311 25.6855 90.4471 25.8212 91.0173 25.9299C91.5876 26.0385 92.185 26.1743 92.7824 26.31C93.3799 26.4458 93.9501 26.6087 94.5204 26.7988C95.0907 26.9889 95.6066 27.2333 96.0411 27.5863C96.4756 27.9122 96.8558 28.3195 97.1273 28.8083C97.3989 29.2971 97.5346 29.9217 97.5346 30.6277C97.5346 31.4967 97.3446 32.2299 96.9372 32.8545C96.5299 33.4519 96.0139 33.9679 95.3894 34.348C94.7648 34.7282 94.0316 34.9998 93.2712 35.1899C92.4837 35.3528 91.7234 35.4614 90.963 35.4614C90.0397 35.4614 89.1708 35.3528 88.3833 35.1356C87.5957 34.9183 86.8897 34.5924 86.3194 34.1851C85.7492 33.7506 85.2875 33.2347 84.9617 32.5829C84.6358 31.9584 84.4457 31.198 84.4186 30.3019H87.7044V30.329H87.7315ZM98.4579 20.3087H100.929V15.8552H104.188V20.2815H107.121V22.6984H104.188V30.5734C104.188 30.9265 104.215 31.198 104.242 31.4696C104.269 31.714 104.351 31.9312 104.432 32.0941C104.541 32.2571 104.704 32.3929 104.894 32.4743C105.111 32.5558 105.383 32.6101 105.763 32.6101C105.98 32.6101 106.224 32.6101 106.442 32.5829C106.659 32.5558 106.903 32.5286 107.121 32.4743V34.9998C106.768 35.0541 106.414 35.0812 106.061 35.1084C105.708 35.1627 105.383 35.1627 105.002 35.1627C104.133 35.1627 103.455 35.0812 102.939 34.9183C102.423 34.7554 102.015 34.511 101.717 34.2123C101.418 33.8864 101.228 33.5062 101.119 33.0446C101.011 32.5829 100.956 32.0127 100.929 31.4153V22.7255H98.4579V20.2544V20.3087ZM109.402 20.3087H112.47V22.3182H112.524C112.986 21.4492 113.611 20.8518 114.425 20.4716C115.24 20.0914 116.109 19.9013 117.087 19.9013C118.254 19.9013 119.259 20.0914 120.128 20.5259C120.997 20.9333 121.703 21.4764 122.273 22.2096C122.844 22.9156 123.278 23.7574 123.55 24.7079C123.821 25.6583 123.984 26.6902 123.984 27.7493C123.984 28.754 123.848 29.7045 123.604 30.6277C123.332 31.551 122.952 32.3929 122.436 33.0989C121.92 33.8049 121.269 34.3752 120.454 34.8097C119.639 35.2442 118.716 35.4614 117.63 35.4614C117.168 35.4614 116.679 35.4071 116.218 35.3256C115.756 35.2442 115.294 35.1084 114.86 34.9183C114.425 34.7282 114.018 34.4838 113.665 34.1851C113.285 33.8864 112.986 33.5334 112.742 33.1532H112.687V40.5123H109.429V20.3087H109.402ZM120.78 27.695C120.78 27.0432 120.698 26.3915 120.508 25.7669C120.345 25.1423 120.074 24.5992 119.721 24.1104C119.368 23.6216 118.933 23.2415 118.444 22.9428C117.928 22.644 117.331 22.5083 116.679 22.5083C115.321 22.5083 114.29 22.9699 113.584 23.9204C112.905 24.8708 112.552 26.1471 112.552 27.7221C112.552 28.4825 112.633 29.1614 112.823 29.7859C113.013 30.4105 113.258 30.9536 113.638 31.4153C113.991 31.8769 114.425 32.2299 114.941 32.5015C115.457 32.773 116.028 32.9088 116.706 32.9088C117.467 32.9088 118.064 32.7459 118.58 32.4472C119.096 32.1485 119.503 31.7411 119.856 31.2795C120.182 30.7907 120.427 30.2476 120.562 29.623C120.698 28.9713 120.78 28.3467 120.78 27.695ZM126.51 14.6875H129.768V17.7561H126.51V14.6875ZM126.51 20.3087H129.768V35.0541H126.51V20.3087ZM132.674 14.6875H135.932V35.0541H132.674V14.6875ZM145.871 35.4614C144.704 35.4614 143.645 35.2713 142.721 34.864C141.798 34.4567 141.038 33.9407 140.386 33.2618C139.761 32.5829 139.273 31.7411 138.947 30.7907C138.621 29.8402 138.431 28.7812 138.431 27.6678C138.431 26.5544 138.594 25.5225 138.947 24.5721C139.273 23.6216 139.761 22.807 140.386 22.1009C141.011 21.422 141.798 20.8789 142.721 20.4988C143.645 20.1186 144.704 19.9013 145.871 19.9013C147.039 19.9013 148.098 20.0914 149.021 20.4988C149.945 20.8789 150.705 21.422 151.357 22.1009C151.981 22.7798 152.47 23.6216 152.796 24.5721C153.122 25.5225 153.312 26.5544 153.312 27.6678C153.312 28.8083 153.149 29.8402 152.796 30.7907C152.443 31.7411 151.981 32.5558 151.357 33.2618C150.732 33.9407 149.945 34.4838 149.021 34.864C148.098 35.2442 147.066 35.4614 145.871 35.4614ZM145.871 32.8817C146.577 32.8817 147.229 32.7187 147.745 32.42C148.288 32.1213 148.696 31.714 149.049 31.2252C149.402 30.7364 149.646 30.1661 149.809 29.5687C149.972 28.9441 150.053 28.3195 150.053 27.6678C150.053 27.0432 149.972 26.4187 149.809 25.7941C149.646 25.1695 149.402 24.6264 149.049 24.1376C148.696 23.6488 148.261 23.2686 147.745 22.9699C147.202 22.6712 146.577 22.5083 145.871 22.5083C145.165 22.5083 144.514 22.6712 143.998 22.9699C143.455 23.2686 143.047 23.676 142.694 24.1376C142.341 24.6264 142.097 25.1695 141.934 25.7941C141.771 26.4187 141.689 27.0432 141.689 27.6678C141.689 28.3195 141.771 28.9441 141.934 29.5687C142.097 30.1933 142.341 30.7364 142.694 31.2252C143.047 31.714 143.482 32.1213 143.998 32.42C144.541 32.7459 145.165 32.8817 145.871 32.8817ZM154.29 20.3087H156.761V15.8552H160.019V20.2815H162.952V22.6984H160.019V30.5734C160.019 30.9265 160.047 31.198 160.074 31.4696C160.101 31.714 160.182 31.9312 160.264 32.0941C160.372 32.2571 160.535 32.3929 160.725 32.4743C160.943 32.5558 161.214 32.6101 161.594 32.6101C161.812 32.6101 162.056 32.6101 162.273 32.5829C162.491 32.5558 162.735 32.5286 162.952 32.4743V34.9998C162.599 35.0541 162.246 35.0812 161.893 35.1084C161.54 35.1627 161.214 35.1627 160.834 35.1627C159.965 35.1627 159.286 35.0812 158.77 34.9183C158.254 34.7554 157.847 34.511 157.548 34.2123C157.249 33.8864 157.059 33.5062 156.951 33.0446C156.842 32.5829 156.788 32.0127 156.761 31.4153V22.7255H154.29V20.2544V20.3087Z" fill="#111111"/>
<path d="M39.0419 14.6869H24.1336L19.5443 0.511719L14.9279 14.6869L0.0195312 14.6597L12.0766 23.4309L7.46013 37.6061L19.5171 28.8349L31.5742 37.6061L26.9849 23.4309L39.0419 14.6869Z" fill="#00B67A"/>
<path d="M28.0164 26.636L26.9845 23.4316L19.5439 28.8356L28.0164 26.636Z" fill="#005128"/>
</svg>
