<svg width="30" height="31" viewBox="0 0 30 31" fill="none" xmlns="http://www.w3.org/2000/svg">
<path d="M9.64272 28.5608C14.3766 28.5608 18.2141 24.7233 18.2141 19.9894C18.2141 15.2555 14.3766 11.418 9.64272 11.418C4.90885 11.418 1.07129 15.2555 1.07129 19.9894C1.07129 24.7233 4.90885 28.5608 9.64272 28.5608Z" stroke="white" stroke-width="1.5" stroke-linecap="round" stroke-linejoin="round"/>
<path d="M20.3571 28.5608C25.0909 28.5608 28.9285 24.7233 28.9285 19.9894C28.9285 15.2555 25.0909 11.418 20.3571 11.418C15.6232 11.418 11.7856 15.2555 11.7856 19.9894C11.7856 24.7233 15.6232 28.5608 20.3571 28.5608Z" stroke="white" stroke-width="1.5" stroke-linecap="round" stroke-linejoin="round"/>
<path d="M14.9997 19.9886C19.7335 19.9886 23.5711 16.151 23.5711 11.4171C23.5711 6.68326 19.7335 2.8457 14.9997 2.8457C10.2658 2.8457 6.42822 6.68326 6.42822 11.4171C6.42822 16.151 10.2658 19.9886 14.9997 19.9886Z" stroke="white" stroke-width="1.5" stroke-linecap="round" stroke-linejoin="round"/>
</svg>
