<svg width="41" height="40" viewBox="0 0 41 40" fill="none" xmlns="http://www.w3.org/2000/svg">
<path d="M24.8054 14.2846C26.3833 14.2846 27.6625 13.0054 27.6625 11.4275C27.6625 9.8495 26.3833 8.57031 24.8054 8.57031C23.2274 8.57031 21.9482 9.8495 21.9482 11.4275C21.9482 13.0054 23.2274 14.2846 24.8054 14.2846Z" stroke="white" stroke-width="1.5" stroke-linecap="round" stroke-linejoin="round"/>
<path d="M13.3768 28.57C14.1658 28.57 14.8054 27.9304 14.8054 27.1415C14.8054 26.3525 14.1658 25.7129 13.3768 25.7129C12.5878 25.7129 11.9482 26.3525 11.9482 27.1415C11.9482 27.9304 12.5878 28.57 13.3768 28.57Z" stroke="white" stroke-width="1.5" stroke-linecap="round" stroke-linejoin="round"/>
<path d="M13.3772 18.5698C14.9551 18.5698 16.2343 17.2906 16.2343 15.7126C16.2343 14.1347 14.9551 12.8555 13.3772 12.8555C11.7992 12.8555 10.52 14.1347 10.52 15.7126C10.52 17.2906 11.7992 18.5698 13.3772 18.5698Z" stroke="white" stroke-width="1.5" stroke-linecap="round" stroke-linejoin="round"/>
<path d="M27.7198 35.0849C27.6879 34.5307 27.4953 33.9978 27.1655 33.5513C26.8357 33.1047 26.383 32.764 25.8626 32.5706C24.5704 32.1459 23.472 31.2741 22.765 30.1119C22.058 28.9498 21.7888 27.5736 22.0057 26.2307C22.2226 24.8879 22.9115 23.6664 23.9484 22.786C24.9854 21.9056 26.3024 21.424 27.6626 21.4277H33.0055C33.9219 21.4303 34.8254 21.2124 35.6399 20.7925C36.4544 20.3726 37.156 19.7629 37.6854 19.015C38.2149 18.267 38.5567 17.4027 38.682 16.495C38.8073 15.5872 38.7125 14.6626 38.4055 13.7992C37.2691 10.5905 35.2727 7.75589 32.6344 5.60501C29.9961 3.45414 26.8174 2.06975 23.4456 1.60309C20.0737 1.13643 16.6385 1.60546 13.5152 2.95894C10.3919 4.31241 7.70069 6.49826 5.73554 9.27767C3.7704 12.0571 2.60695 15.3231 2.37231 18.719C2.13766 22.1148 2.84085 25.5099 4.40504 28.5332C5.96924 31.5564 8.33426 34.0917 11.2417 35.8618C14.1492 37.632 17.4873 38.5691 20.8912 38.5706C22.5722 38.5753 24.2457 38.3445 25.8626 37.8849C26.4565 37.7185 26.9708 37.3441 27.3118 36.8301C27.6527 36.3161 27.7975 35.6967 27.7198 35.0849V35.0849Z" stroke="white" stroke-width="1.5" stroke-linecap="round" stroke-linejoin="round"/>
</svg>
