<svg width="61" height="60" viewBox="0 0 61 60" fill="none" xmlns="http://www.w3.org/2000/svg">
<path d="M36.5782 21.4289C38.9451 21.4289 40.8639 19.5101 40.8639 17.1431C40.8639 14.7762 38.9451 12.8574 36.5782 12.8574C34.2113 12.8574 32.2925 14.7762 32.2925 17.1431C32.2925 19.5101 34.2113 21.4289 36.5782 21.4289Z" stroke="url(#paint0_linear_413_88)" stroke-width="2" stroke-linecap="round" stroke-linejoin="round"/>
<path d="M19.4353 42.856C20.6188 42.856 21.5782 41.8966 21.5782 40.7132C21.5782 39.5297 20.6188 38.5703 19.4353 38.5703C18.2519 38.5703 17.2925 39.5297 17.2925 40.7132C17.2925 41.8966 18.2519 42.856 19.4353 42.856Z" stroke="url(#paint1_linear_413_88)" stroke-width="2" stroke-linecap="round" stroke-linejoin="round"/>
<path d="M19.4356 27.8566C21.8026 27.8566 23.7213 25.9378 23.7213 23.5709C23.7213 21.2039 21.8026 19.2852 19.4356 19.2852C17.0687 19.2852 15.1499 21.2039 15.1499 23.5709C15.1499 25.9378 17.0687 27.8566 19.4356 27.8566Z" stroke="url(#paint2_linear_413_88)" stroke-width="2" stroke-linecap="round" stroke-linejoin="round"/>
<path d="M40.9498 52.6283C40.902 51.797 40.6131 50.9976 40.1184 50.3279C39.6237 49.6581 38.9446 49.1469 38.1641 48.8569C36.2257 48.2198 34.5781 46.9121 33.5176 45.1689C32.4571 43.4257 32.0533 41.3614 32.3787 39.3471C32.7041 37.3328 33.7374 35.5006 35.2928 34.18C36.8482 32.8594 38.8237 32.137 40.8641 32.1426H48.8784C50.2529 32.1464 51.6082 31.8196 52.83 31.1897C54.0518 30.5598 55.1041 29.6454 55.8983 28.5234C56.6924 27.4015 57.2051 26.1051 57.3931 24.7434C57.5811 23.3818 57.4389 21.9949 56.9784 20.6997C55.2738 15.8867 52.2792 11.6348 48.3217 8.4085C44.3643 5.18218 39.5962 3.1056 34.5385 2.40561C29.4807 1.70563 24.3279 2.40917 19.643 4.43938C14.958 6.46959 10.9211 9.74836 7.97343 13.9175C5.02572 18.0866 3.28054 22.9857 2.92858 28.0795C2.57661 33.1732 3.63139 38.2658 5.97768 42.8007C8.32397 47.3356 11.8715 51.1385 16.2327 53.7937C20.5939 56.449 25.601 57.8546 30.7069 57.8569C33.2285 57.8639 35.7386 57.5177 38.1641 56.8283C39.0549 56.5787 39.8264 56.0172 40.3378 55.2462C40.8491 54.4752 41.0664 53.5461 40.9498 52.6283V52.6283Z" stroke="url(#paint3_linear_413_88)" stroke-width="2" stroke-linecap="round" stroke-linejoin="round"/>
<defs>
<linearGradient id="paint0_linear_413_88" x1="32.2925" y1="17.1431" x2="40.8639" y2="17.1431" gradientUnits="userSpaceOnUse">
<stop stop-color="#386BB7"/>
<stop offset="1" stop-color="#E24C4A"/>
</linearGradient>
<linearGradient id="paint1_linear_413_88" x1="17.2925" y1="40.7132" x2="21.5782" y2="40.7132" gradientUnits="userSpaceOnUse">
<stop stop-color="#386BB7"/>
<stop offset="1" stop-color="#E24C4A"/>
</linearGradient>
<linearGradient id="paint2_linear_413_88" x1="15.1499" y1="23.5709" x2="23.7213" y2="23.5709" gradientUnits="userSpaceOnUse">
<stop stop-color="#386BB7"/>
<stop offset="1" stop-color="#E24C4A"/>
</linearGradient>
<linearGradient id="paint3_linear_413_88" x1="2.8623" y1="29.9998" x2="57.4737" y2="29.9998" gradientUnits="userSpaceOnUse">
<stop stop-color="#386BB7"/>
<stop offset="1" stop-color="#E24C4A"/>
</linearGradient>
</defs>
</svg>
