<svg width="21" height="20" viewBox="0 0 21 20" fill="none" xmlns="http://www.w3.org/2000/svg">
<path d="M18.1142 9.5953L15.8426 8.94613C14.8196 8.65772 13.8877 8.11161 13.1362 7.36004C12.3846 6.60848 11.8385 5.67662 11.5501 4.65363L10.9009 2.38196C10.8683 2.30248 10.8127 2.23451 10.7413 2.18667C10.67 2.13882 10.586 2.11328 10.5001 2.11328C10.4141 2.11328 10.3302 2.13882 10.2588 2.18667C10.1874 2.23451 10.1319 2.30248 10.0992 2.38196L9.45007 4.65363C9.16166 5.67662 8.61555 6.60848 7.86398 7.36004C7.11242 8.11161 6.18056 8.65772 5.15757 8.94613L2.8859 9.5953C2.79868 9.62005 2.72191 9.67259 2.66725 9.74492C2.61258 9.81726 2.58301 9.90546 2.58301 9.99613C2.58301 10.0868 2.61258 10.175 2.66725 10.2473C2.72191 10.3197 2.79868 10.3722 2.8859 10.397L5.15757 11.0461C6.18056 11.3345 7.11242 11.8807 7.86398 12.6322C8.61555 13.3838 9.16166 14.3156 9.45007 15.3386L10.0992 17.6103C10.124 17.6975 10.1765 17.7743 10.2489 17.829C10.3212 17.8836 10.4094 17.9132 10.5001 17.9132C10.5907 17.9132 10.6789 17.8836 10.7513 17.829C10.8236 17.7743 10.8761 17.6975 10.9009 17.6103L11.5501 15.3386C11.8385 14.3156 12.3846 13.3838 13.1362 12.6322C13.8877 11.8807 14.8196 11.3345 15.8426 11.0461L18.1142 10.397C18.2015 10.3722 18.2782 10.3197 18.3329 10.2473C18.3876 10.175 18.4171 10.0868 18.4171 9.99613C18.4171 9.90546 18.3876 9.81726 18.3329 9.74492C18.2782 9.67259 18.2015 9.62005 18.1142 9.5953Z" fill="#E24C4A"/>
</svg>
