<svg width="40" height="41" viewBox="0 0 40 41" fill="none" xmlns="http://www.w3.org/2000/svg">
<path d="M12.8573 37.8435C19.1691 37.8435 24.2859 32.7267 24.2859 26.4149C24.2859 20.1031 19.1691 14.9863 12.8573 14.9863C6.54546 14.9863 1.42871 20.1031 1.42871 26.4149C1.42871 32.7267 6.54546 37.8435 12.8573 37.8435Z" stroke="white" stroke-width="1.5" stroke-linecap="round" stroke-linejoin="round"/>
<path d="M27.1429 37.8435C33.4548 37.8435 38.5715 32.7267 38.5715 26.4149C38.5715 20.1031 33.4548 14.9863 27.1429 14.9863C20.8311 14.9863 15.7144 20.1031 15.7144 26.4149C15.7144 32.7267 20.8311 37.8435 27.1429 37.8435Z" stroke="white" stroke-width="1.5" stroke-linecap="round" stroke-linejoin="round"/>
<path d="M20.0003 26.4157C26.3122 26.4157 31.4289 21.299 31.4289 14.9872C31.4289 8.67534 26.3122 3.55859 20.0003 3.55859C13.6885 3.55859 8.57178 8.67534 8.57178 14.9872C8.57178 21.299 13.6885 26.4157 20.0003 26.4157Z" stroke="white" stroke-width="1.5" stroke-linecap="round" stroke-linejoin="round"/>
</svg>
