<svg width="50" height="51" viewBox="0 0 50 51" fill="none" xmlns="http://www.w3.org/2000/svg">
<circle cx="25.0034" cy="25.7979" r="25" fill="white"/>
<path d="M21.5589 12.2637L10.5394 31.3585C9.82476 32.6019 9.82476 34.0884 10.5394 35.3247C11.254 36.5681 12.5403 37.3113 13.9767 37.3113H17.6499C19.0649 37.3113 20.3798 36.5538 21.0873 35.3247L21.3445 34.8816C21.4088 35.0317 21.4803 35.1817 21.5661 35.3247C22.2807 36.5681 23.567 37.3113 25.0034 37.3113H28.6766C30.0916 37.3113 31.4065 36.5538 32.1139 35.3247L32.3712 34.8816C32.4355 35.0317 32.507 35.1817 32.5927 35.3247C33.3074 36.5681 34.5937 37.3113 36.0301 37.3113C37.4665 37.3113 38.7528 36.5681 39.4674 35.3247C40.1821 34.0812 40.1821 32.5948 39.4674 31.3585C38.7528 30.115 37.4665 29.3718 36.0301 29.3718C35.8657 29.3718 35.7014 29.379 35.537 29.4004L35.7943 28.9574C36.5018 27.7353 36.5018 26.2132 35.7943 24.9912L33.9577 21.8111C33.2431 20.5676 31.9567 19.8244 30.5203 19.8244C30.356 19.8244 30.1916 19.8316 30.0272 19.853L30.2845 19.41C30.992 18.1879 30.992 16.6658 30.2845 15.4438L28.4479 12.2708C27.7333 11.0274 26.447 10.2842 25.0106 10.2842C23.5742 10.2842 22.2878 11.0274 21.5732 12.2708L21.5589 12.2637ZM36.0158 30.944C36.8805 30.944 37.6594 31.3942 38.0882 32.1446C38.517 32.8949 38.5241 33.7882 38.0882 34.5386C37.6523 35.2889 36.8805 35.7392 36.0158 35.7392C35.1511 35.7392 34.3722 35.2889 33.9434 34.5386C33.5075 33.7882 33.5075 32.8949 33.9434 32.1446C34.3793 31.3942 35.1511 30.944 36.0158 30.944ZM30.506 21.3895C31.3707 21.3895 32.1497 21.8397 32.5785 22.59L34.415 25.7701C34.8438 26.5062 34.8438 27.4281 34.415 28.1641L30.7419 34.5314C30.3131 35.2675 29.5199 35.732 28.6694 35.732H24.9963C24.1316 35.732 23.3526 35.2818 22.9239 34.5314C22.4879 33.7811 22.4879 32.8878 22.9239 32.1374L28.4336 22.5829C28.8695 21.8325 29.6413 21.3823 30.506 21.3823V21.3895ZM24.9963 11.8492C25.861 11.8492 26.6399 12.2994 27.0687 13.0498L28.9053 16.2227C29.3341 16.9588 29.3341 17.8807 28.9053 18.6167L27.0687 21.8039L21.5589 31.3514L19.7223 34.5314C19.2936 35.2675 18.5003 35.732 17.6499 35.732H13.9767C13.112 35.732 12.3331 35.2818 11.9043 34.5314C11.4684 33.7811 11.4684 32.8878 11.9043 32.1374L22.9239 13.0426C23.3598 12.2923 24.1316 11.8421 24.9963 11.8421V11.8492Z" fill="url(#paint0_linear_898_9)"/>
<path d="M17.6426 29.9289C17.764 30.0003 17.8998 30.0361 18.0356 30.0361C18.3072 30.0361 18.5716 29.8932 18.7145 29.643L23.4382 21.4677C23.6526 21.089 23.5239 20.6102 23.1523 20.3958C22.7736 20.1814 22.2948 20.31 22.0804 20.6816L17.3567 28.8569C17.1423 29.2357 17.271 29.7145 17.6426 29.9289Z" fill="url(#paint1_linear_898_9)"/>
<path d="M27.5688 31.9014C27.6903 31.9729 27.8261 32.0086 27.9619 32.0086C28.2334 32.0086 28.4978 31.8657 28.6408 31.6156L30.9204 27.6708C31.1348 27.2921 31.0062 26.8133 30.6346 26.5989C30.2558 26.3845 29.777 26.5131 29.5626 26.8847L27.283 30.8295C27.0686 31.2082 27.1972 31.687 27.5688 31.9014Z" fill="url(#paint2_linear_898_9)"/>
<defs>
<linearGradient id="paint0_linear_898_9" x1="10.0034" y1="23.7978" x2="40.0034" y2="23.7978" gradientUnits="userSpaceOnUse">
<stop stop-color="#386BB7"/>
<stop offset="1" stop-color="#E24C4A"/>
</linearGradient>
<linearGradient id="paint1_linear_898_9" x1="17.2529" y1="25.164" x2="23.542" y2="25.164" gradientUnits="userSpaceOnUse">
<stop stop-color="#386BB7"/>
<stop offset="1" stop-color="#E24C4A"/>
</linearGradient>
<linearGradient id="paint2_linear_898_9" x1="27.1792" y1="29.2519" x2="31.0242" y2="29.2519" gradientUnits="userSpaceOnUse">
<stop stop-color="#386BB7"/>
<stop offset="1" stop-color="#E24C4A"/>
</linearGradient>
</defs>
</svg>
