<svg width="183" height="50" viewBox="0 0 183 50" fill="none" xmlns="http://www.w3.org/2000/svg">
<circle cx="25" cy="25" r="25" fill="url(#paint0_linear_412_28)"/>
<path d="M21.5555 11.4658L10.536 30.5606C9.82134 31.8041 9.82134 33.2905 10.536 34.5268C11.2506 35.7703 12.5369 36.5135 13.9733 36.5135H17.6465C19.0615 36.5135 20.3764 35.756 21.0838 34.5268L21.3411 34.0838C21.4054 34.2338 21.4769 34.3839 21.5627 34.5268C22.2773 35.7703 23.5636 36.5135 25 36.5135H28.6732C30.0881 36.5135 31.403 35.756 32.1105 34.5268L32.3678 34.0838C32.4321 34.2338 32.5036 34.3839 32.5893 34.5268C33.304 35.7703 34.5903 36.5135 36.0267 36.5135C37.4631 36.5135 38.7494 35.7703 39.464 34.5268C40.1787 33.2834 40.1787 31.7969 39.464 30.5606C38.7494 29.3172 37.4631 28.574 36.0267 28.574C35.8623 28.574 35.698 28.5811 35.5336 28.6026L35.7909 28.1595C36.4983 26.9375 36.4983 25.4153 35.7909 24.1933L33.9543 21.0132C33.2396 19.7698 31.9533 19.0266 30.5169 19.0266C30.3525 19.0266 30.1882 19.0337 30.0238 19.0552L30.2811 18.6121C30.9886 17.3901 30.9886 15.8679 30.2811 14.6459L28.4445 11.473C27.7299 10.2295 26.4435 9.48633 25.0071 9.48633C23.5708 9.48633 22.2844 10.2295 21.5698 11.473L21.5555 11.4658ZM36.0124 30.1462C36.8771 30.1462 37.656 30.5964 38.0848 31.3467C38.5136 32.0971 38.5207 32.9904 38.0848 33.7407C37.6489 34.4911 36.8771 34.9413 36.0124 34.9413C35.1477 34.9413 34.3687 34.4911 33.94 33.7407C33.5041 32.9904 33.5041 32.0971 33.94 31.3467C34.3759 30.5964 35.1477 30.1462 36.0124 30.1462ZM30.5026 20.5916C31.3673 20.5916 32.1463 21.0418 32.575 21.7922L34.4116 24.9723C34.8404 25.7083 34.8404 26.6302 34.4116 27.3663L30.7384 33.7336C30.3097 34.4697 29.5164 34.9342 28.666 34.9342H24.9929C24.1282 34.9342 23.3492 34.4839 22.9204 33.7336C22.4845 32.9832 22.4845 32.0899 22.9204 31.3396L28.4302 21.785C28.8661 21.0347 29.6379 20.5845 30.5026 20.5845V20.5916ZM24.9929 11.0514C25.8576 11.0514 26.6365 11.5016 27.0653 12.2519L28.9019 15.4249C29.3306 16.1609 29.3306 17.0828 28.9019 17.8189L27.0653 21.0061L21.5555 30.5535L19.7189 33.7336C19.2901 34.4697 18.4969 34.9342 17.6465 34.9342H13.9733C13.1086 34.9342 12.3297 34.4839 11.9009 33.7336C11.465 32.9832 11.465 32.0899 11.9009 31.3396L22.9204 12.2448C23.3564 11.4944 24.1282 11.0442 24.9929 11.0442V11.0514Z" fill="white"/>
<path d="M17.6396 29.131C17.7611 29.2025 17.8969 29.2382 18.0327 29.2382C18.3042 29.2382 18.5686 29.0953 18.7116 28.8452L23.4352 20.6699C23.6496 20.2911 23.521 19.8123 23.1494 19.5979C22.7706 19.3835 22.2918 19.5122 22.0775 19.8838L17.3538 28.0591C17.1394 28.4378 17.268 28.9166 17.6396 29.131Z" fill="white"/>
<path d="M27.5693 31.1036C27.6908 31.175 27.8266 31.2108 27.9624 31.2108C28.2339 31.2108 28.4983 31.0678 28.6413 30.8177L30.9209 26.873C31.1353 26.4942 31.0067 26.0154 30.6351 25.801C30.2563 25.5867 29.7775 25.7153 29.5631 26.0869L27.2835 30.0316C27.0691 30.4104 27.1977 30.8892 27.5693 31.1036Z" fill="white"/>
<path d="M65.7992 34.5V17.22H69.1112L76.6232 28.74V17.22H79.9352V34.5H76.6232L69.1112 22.98V34.5H65.7992ZM88.8276 34.86C87.4996 34.86 86.3276 34.576 85.3116 34.008C84.3036 33.432 83.5116 32.644 82.9356 31.644C82.3676 30.636 82.0836 29.484 82.0836 28.188C82.0836 26.772 82.3636 25.54 82.9236 24.492C83.4836 23.444 84.2556 22.632 85.2396 22.056C86.2236 21.472 87.3556 21.18 88.6356 21.18C89.9956 21.18 91.1516 21.5 92.1036 22.14C93.0556 22.78 93.7596 23.68 94.2156 24.84C94.6716 26 94.8316 27.364 94.6956 28.932H91.4676V27.732C91.4676 26.412 91.2556 25.464 90.8316 24.888C90.4156 24.304 89.7316 24.012 88.7796 24.012C87.6676 24.012 86.8476 24.352 86.3196 25.032C85.7996 25.704 85.5396 26.7 85.5396 28.02C85.5396 29.228 85.7996 30.164 86.3196 30.828C86.8476 31.484 87.6196 31.812 88.6356 31.812C89.2756 31.812 89.8236 31.672 90.2796 31.392C90.7356 31.112 91.0836 30.708 91.3236 30.18L94.5876 31.116C94.0996 32.3 93.3276 33.22 92.2716 33.876C91.2236 34.532 90.0756 34.86 88.8276 34.86ZM84.5316 28.932V26.508H93.1236V28.932H84.5316ZM95.0164 34.5L99.6484 27.948L95.1124 21.54H98.9524L101.544 25.38L104.088 21.54H107.928L103.392 27.948L108.048 34.5H104.208L101.544 30.516L98.8564 34.5H95.0164ZM117.276 34.5C116.38 34.668 115.5 34.74 114.636 34.716C113.78 34.7 113.012 34.552 112.332 34.272C111.66 33.984 111.148 33.524 110.796 32.892C110.476 32.3 110.308 31.7 110.292 31.092C110.276 30.476 110.268 29.78 110.268 29.004V17.94H113.532V28.812C113.532 29.316 113.536 29.772 113.544 30.18C113.56 30.58 113.644 30.9 113.796 31.14C114.084 31.596 114.544 31.844 115.176 31.884C115.808 31.924 116.508 31.892 117.276 31.788V34.5ZM108.06 24.06V21.54H117.276V24.06H108.06ZM135.284 34.5V26.844C135.284 25.988 135.08 25.324 134.672 24.852C134.272 24.372 133.716 24.132 133.004 24.132C132.548 24.132 132.152 24.24 131.816 24.456C131.48 24.664 131.216 24.96 131.024 25.344C130.84 25.72 130.748 26.156 130.748 26.652L129.38 25.74C129.38 24.852 129.588 24.068 130.004 23.388C130.428 22.708 130.992 22.18 131.696 21.804C132.408 21.42 133.196 21.228 134.06 21.228C135.54 21.228 136.656 21.668 137.408 22.548C138.168 23.42 138.548 24.564 138.548 25.98V34.5H135.284ZM119.66 34.5V21.54H122.54V25.836H122.948V34.5H119.66ZM127.484 34.5V26.844C127.484 25.988 127.28 25.324 126.872 24.852C126.472 24.372 125.916 24.132 125.204 24.132C124.524 24.132 123.976 24.368 123.56 24.84C123.152 25.304 122.948 25.908 122.948 26.652L121.58 25.692C121.58 24.844 121.792 24.084 122.216 23.412C122.64 22.74 123.208 22.208 123.92 21.816C124.64 21.424 125.444 21.228 126.332 21.228C127.348 21.228 128.18 21.444 128.828 21.876C129.484 22.308 129.968 22.884 130.28 23.604C130.592 24.324 130.748 25.116 130.748 25.98V34.5H127.484ZM141.428 19.74V16.86H144.692V19.74H141.428ZM141.428 34.5V21.54H144.692V34.5H141.428ZM156.642 34.5V28.38C156.642 28.084 156.626 27.708 156.594 27.252C156.562 26.788 156.462 26.324 156.294 25.86C156.126 25.396 155.85 25.008 155.466 24.696C155.09 24.384 154.554 24.228 153.858 24.228C153.578 24.228 153.278 24.272 152.958 24.36C152.638 24.448 152.338 24.62 152.058 24.876C151.778 25.124 151.546 25.492 151.362 25.98C151.186 26.468 151.098 27.116 151.098 27.924L149.226 27.036C149.226 26.012 149.434 25.052 149.85 24.156C150.266 23.26 150.89 22.536 151.722 21.984C152.562 21.432 153.618 21.156 154.89 21.156C155.906 21.156 156.734 21.328 157.374 21.672C158.014 22.016 158.51 22.452 158.862 22.98C159.222 23.508 159.478 24.06 159.63 24.636C159.782 25.204 159.874 25.724 159.906 26.196C159.938 26.668 159.954 27.012 159.954 27.228V34.5H156.642ZM147.786 34.5V21.54H150.69V25.836H151.098V34.5H147.786ZM167.609 34.86C166.417 34.86 165.373 34.56 164.477 33.96C163.581 33.36 162.881 32.544 162.377 31.512C161.881 30.48 161.633 29.316 161.633 28.02C161.633 26.7 161.885 25.528 162.389 24.504C162.901 23.472 163.617 22.66 164.537 22.068C165.457 21.476 166.537 21.18 167.777 21.18C169.009 21.18 170.045 21.48 170.885 22.08C171.725 22.68 172.361 23.496 172.793 24.528C173.225 25.56 173.441 26.724 173.441 28.02C173.441 29.316 173.221 30.48 172.781 31.512C172.349 32.544 171.701 33.36 170.837 33.96C169.973 34.56 168.897 34.86 167.609 34.86ZM168.137 31.956C168.865 31.956 169.445 31.792 169.877 31.464C170.317 31.136 170.633 30.676 170.825 30.084C171.017 29.492 171.113 28.804 171.113 28.02C171.113 27.236 171.017 26.548 170.825 25.956C170.633 25.364 170.325 24.904 169.901 24.576C169.485 24.248 168.937 24.084 168.257 24.084C167.529 24.084 166.929 24.264 166.457 24.624C165.993 24.976 165.649 25.452 165.425 26.052C165.201 26.644 165.089 27.3 165.089 28.02C165.089 28.748 165.197 29.412 165.413 30.012C165.629 30.604 165.961 31.076 166.409 31.428C166.857 31.78 167.433 31.956 168.137 31.956ZM171.113 34.5V25.62H170.705V17.22H173.993V34.5H171.113Z" fill="white"/>
<path d="M177.401 34.5V31.236H180.665V34.5H177.401Z" fill="url(#paint1_linear_412_28)"/>
<defs>
<linearGradient id="paint0_linear_412_28" x1="0" y1="25" x2="50" y2="25" gradientUnits="userSpaceOnUse">
<stop stop-color="#386BB7"/>
<stop offset="1" stop-color="#E24C4A"/>
</linearGradient>
<linearGradient id="paint1_linear_412_28" x1="64" y1="25" x2="183" y2="25" gradientUnits="userSpaceOnUse">
<stop stop-color="#386BB7"/>
<stop offset="1" stop-color="#E24C4A"/>
</linearGradient>
</defs>
</svg>
