<svg width="413" height="413" viewBox="0 0 413 413" fill="none" xmlns="http://www.w3.org/2000/svg">
<g clip-path="url(#clip0_1145_21)">
<g filter="url(#filter0_f_1145_21)">
<path d="M110 40C110 78.6599 78.6599 110 40 110C1.34007 110 -30 78.6599 -30 40C-30 1.34007 1.34007 -30 40 -30C78.6599 -30 110 1.34007 110 40Z" fill="#386BB7" fill-opacity="0.8"/>
</g>
<g filter="url(#filter1_f_1145_21)">
<path d="M443 373C443 411.66 411.66 443 373 443C334.34 443 303 411.66 303 373C303 334.34 334.34 303 373 303C411.66 303 443 334.34 443 373Z" fill="#E24C4A" fill-opacity="0.8"/>
</g>
</g>
<defs>
<filter id="filter0_f_1145_21" x="-230" y="-230" width="540" height="540" filterUnits="userSpaceOnUse" color-interpolation-filters="sRGB">
<feFlood flood-opacity="0" result="BackgroundImageFix"/>
<feBlend mode="normal" in="SourceGraphic" in2="BackgroundImageFix" result="shape"/>
<feGaussianBlur stdDeviation="100" result="effect1_foregroundBlur_1145_21"/>
</filter>
<filter id="filter1_f_1145_21" x="103" y="103" width="540" height="540" filterUnits="userSpaceOnUse" color-interpolation-filters="sRGB">
<feFlood flood-opacity="0" result="BackgroundImageFix"/>
<feBlend mode="normal" in="SourceGraphic" in2="BackgroundImageFix" result="shape"/>
<feGaussianBlur stdDeviation="100" result="effect1_foregroundBlur_1145_21"/>
</filter>
<clipPath id="clip0_1145_21">
<rect width="413" height="413" fill="white"/>
</clipPath>
</defs>
</svg>
